<?xml version="1.0" encoding="UTF-8" standalone="no"?>
<!-- Created with Inkscape (http://www.inkscape.org/) -->

<svg
   version="1.1"
   id="svg2"
   width="967.18665"
   height="581.78668"
   viewBox="0 0 967.18665 581.78668"
   sodipodi:docname="6333073.eps"
   xmlns:inkscape="http://www.inkscape.org/namespaces/inkscape"
   xmlns:sodipodi="http://sodipodi.sourceforge.net/DTD/sodipodi-0.dtd"
   xmlns="http://www.w3.org/2000/svg"
   xmlns:svg="http://www.w3.org/2000/svg">
  <defs
     id="defs6" />
  <sodipodi:namedview
     id="namedview4"
     pagecolor="#ffffff"
     bordercolor="#000000"
     borderopacity="0.25"
     inkscape:showpageshadow="2"
     inkscape:pageopacity="0.0"
     inkscape:pagecheckerboard="0"
     inkscape:deskcolor="#d1d1d1" />
  <g
     id="g8"
     inkscape:groupmode="layer"
     inkscape:label="ink_ext_XXXXXX"
     transform="matrix(1.3333333,0,0,-1.3333333,0,581.78667)">
    <g
       id="g10"
       transform="scale(0.1)">
      <path
         d="m 5457.17,3787.29 c 9.8,204.15 158.2,362.47 331.46,353.6 173.26,-8.86 305.77,-181.54 295.97,-385.69 -9.81,-204.15 -158.21,-362.47 -331.47,-353.61 -173.26,8.86 -305.77,181.55 -295.96,385.7"
         style="fill:#e7e8e5;fill-opacity:1;fill-rule:nonzero;stroke:none"
         id="path12" />
      <path
         d="m 5989.41,3760.95 c -8.94,-186.08 -133.02,-334.05 -286.12,-352.09 16.16,-3.92 32.8,-6.4 49.84,-7.27 173.26,-8.86 321.66,149.46 331.47,353.61 9.8,204.15 -122.71,376.83 -295.97,385.69 -15.34,0.79 -30.48,0.24 -45.35,-1.51 148.1,-35.9 254.96,-194.36 246.13,-378.43"
         style="fill:#dadbd8;fill-opacity:1;fill-rule:nonzero;stroke:none"
         id="path14" />
      <path
         d="m 3516.84,499.352 c 203.6,16.027 369.99,-51.543 371.65,-150.922 1.66,-99.379 -162.04,-192.93 -365.64,-208.95 -203.6,-16.019 -370,51.551 -371.66,150.918 -1.66,99.383 162.05,192.93 365.65,208.954"
         style="fill:#e7e8e5;fill-opacity:1;fill-rule:nonzero;stroke:none"
         id="path16" />
      <path
         d="m 3522.81,194.172 c -185.58,-14.602 -340.22,40.238 -367.41,125.316 -2.91,-9.597 -4.37,-19.308 -4.21,-29.09 1.66,-99.367 168.06,-166.937 371.66,-150.918 203.6,16.02 367.3,109.571 365.64,208.95 -0.15,8.8 -1.61,17.34 -4.25,25.609 C 3857.5,286.09 3706.38,208.621 3522.81,194.172"
         style="fill:#dadbd8;fill-opacity:1;fill-rule:nonzero;stroke:none"
         id="path18" />
      <path
         d="M 918.648,1065.71 C 815.523,1186.82 648.813,1213.78 546.289,1125.93 443.766,1038.07 444.25,868.68 547.375,747.57 650.496,626.461 817.207,599.5 919.734,687.352 c 102.526,87.859 102.036,257.25 -1.086,378.358"
         style="fill:#e7e8e5;fill-opacity:1;fill-rule:nonzero;stroke:none"
         id="path20" />
      <path
         d="M 603.285,796.379 C 697.277,685.988 844.086,653.84 946.98,715.531 938.891,705.441 929.816,696 919.734,687.352 817.207,599.5 650.496,626.461 547.375,747.57 c -103.125,121.11 -103.609,290.5 -1.086,378.36 9.078,7.77 18.668,14.63 28.66,20.63 -74.168,-92.54 -64.644,-240.99 28.336,-350.181"
         style="fill:#dadbd8;fill-opacity:1;fill-rule:nonzero;stroke:none"
         id="path22" />
      <path
         d="m 564.586,2148.95 c 2.238,103.72 -53.41,189.49 -124.297,191.57 -70.887,2.09 -130.168,-80.3 -132.406,-184.01 -2.242,-103.71 53.41,-189.48 124.293,-191.57 70.887,-2.09 130.168,80.3 132.41,184.01"
         style="fill:#e7e8e5;fill-opacity:1;fill-rule:nonzero;stroke:none"
         id="path24" />
      <path
         d="m 346.855,2155.81 c -2.042,-94.53 44.008,-174.14 105.856,-189.08 -6.703,-1.37 -13.563,-2 -20.535,-1.79 -70.883,2.09 -126.535,87.86 -124.293,191.57 2.238,103.71 61.519,186.1 132.406,184.01 6.277,-0.18 12.43,-1.04 18.438,-2.49 -61.461,-12.55 -109.856,-88.71 -111.872,-182.22"
         style="fill:#dadbd8;fill-opacity:1;fill-rule:nonzero;stroke:none"
         id="path26" />
      <path
         d="m 6459.12,1310.55 c -53.76,-101.47 -27.42,-220.51 58.85,-265.88 86.27,-45.369 199.79,0.11 253.56,101.58 53.77,101.47 27.42,220.5 -58.85,265.87 -86.27,45.37 -199.79,-0.11 -253.56,-101.57"
         style="fill:#e7e8e5;fill-opacity:1;fill-rule:nonzero;stroke:none"
         id="path28" />
      <path
         d="m 6723.88,1170.75 c 49.01,92.49 31.45,199.55 -37.37,252.14 8.93,-2.74 17.68,-6.31 26.17,-10.77 86.27,-45.37 112.62,-164.4 58.85,-265.87 -53.77,-101.47 -167.29,-146.949 -253.56,-101.58 -7.64,4.02 -14.79,8.63 -21.48,13.73 81.86,-25.09 178.91,20.86 227.39,112.35"
         style="fill:#dadbd8;fill-opacity:1;fill-rule:nonzero;stroke:none"
         id="path30" />
      <path
         d="m 1952.77,3777.66 c 51.45,150.52 -10.53,307.61 -138.43,350.88 -127.89,43.26 -273.27,-43.68 -324.72,-194.2 -51.44,-150.51 10.54,-307.61 138.44,-350.87 127.89,-43.27 273.27,43.68 324.71,194.19"
         style="fill:#e7e8e5;fill-opacity:1;fill-rule:nonzero;stroke:none"
         id="path32" />
      <path
         d="m 1541.99,3920.46 c -46.89,-137.19 0.46,-279.82 106.05,-336.77 -12.81,1.8 -25.56,4.78 -38.14,9.04 -127.9,43.26 -189.87,200.35 -138.43,350.87 51.44,150.52 196.82,237.46 324.72,194.2 11.32,-3.84 22.12,-8.57 32.37,-14.1 -117.44,16.49 -240.19,-67.52 -286.57,-203.24"
         style="fill:#dadbd8;fill-opacity:1;fill-rule:nonzero;stroke:none"
         id="path34" />
      <path
         d="m 5058.13,3869.16 42.04,-25.03 c 5.45,-3.24 5.01,-11.3 -0.77,-14.2 l -44.62,-22.31 c -1.4,-0.7 -2.58,-1.78 -3.39,-3.12 l -26.06,-42.54 c -3.38,-5.52 -11.45,-5.27 -14.22,0.44 l -21.33,44.03 c -0.67,1.38 -1.73,2.53 -3.05,3.32 l -42.04,25.03 c -5.45,3.24 -5.01,11.3 0.78,14.2 l 44.62,22.32 c 1.39,0.69 2.57,1.77 3.39,3.11 l 26.06,42.54 c 3.38,5.52 11.44,5.26 14.21,-0.44 l 21.34,-44.03 c 0.67,-1.38 1.72,-2.53 3.04,-3.32"
         style="fill:#dadbd8;fill-opacity:1;fill-rule:nonzero;stroke:none"
         id="path36" />
      <path
         d="m 989.219,250.34 42.041,-25.031 c 5.45,-3.25 5.01,-11.309 -0.77,-14.2 l -44.623,-22.32 c -1.402,-0.699 -2.582,-1.777 -3.394,-3.117 l -26.059,-42.543 c -3.379,-5.508 -11.445,-5.258 -14.211,0.449 l -21.34,44.024 c -0.668,1.378 -1.722,2.539 -3.047,3.32 l -42.035,25.027 c -5.453,3.25 -5.011,11.313 0.774,14.199 l 44.621,22.321 c 1.394,0.703 2.574,1.781 3.39,3.113 l 26.059,42.547 c 3.379,5.512 11.445,5.262 14.215,-0.449 l 21.34,-44.032 c 0.668,-1.378 1.722,-2.527 3.039,-3.308"
         style="fill:#dadbd8;fill-opacity:1;fill-rule:nonzero;stroke:none"
         id="path38" />
      <path
         d="m 4700.63,280.012 42.04,-25.032 c 5.45,-3.25 5.01,-11.308 -0.77,-14.199 l -44.62,-22.32 c -1.4,-0.699 -2.58,-1.781 -3.39,-3.121 l -26.06,-42.539 c -3.38,-5.512 -11.45,-5.262 -14.21,0.449 l -21.34,44.031 c -0.67,1.367 -1.73,2.528 -3.05,3.309 l -42.03,25.031 c -5.45,3.25 -5.02,11.309 0.77,14.199 l 44.62,22.321 c 1.4,0.699 2.58,1.777 3.39,3.109 l 26.06,42.551 c 3.38,5.508 11.44,5.258 14.21,-0.449 l 21.34,-44.024 c 0.67,-1.387 1.73,-2.539 3.04,-3.316"
         style="fill:#dadbd8;fill-opacity:1;fill-rule:nonzero;stroke:none"
         id="path40" />
      <path
         d="m 6532.19,316.102 42.04,-25.032 c 5.45,-3.25 5.01,-11.308 -0.77,-14.199 l -44.62,-22.32 c -1.4,-0.699 -2.58,-1.781 -3.39,-3.11 l -26.06,-42.55 c -3.38,-5.512 -11.45,-5.262 -14.22,0.449 l -21.33,44.031 c -0.67,1.367 -1.73,2.527 -3.05,3.309 l -42.04,25.031 c -5.45,3.25 -5.01,11.309 0.78,14.199 l 44.62,22.32 c 1.39,0.7 2.57,1.782 3.39,3.11 l 26.06,42.551 c 3.38,5.519 11.44,5.257 14.21,-0.45 l 21.34,-44.019 c 0.67,-1.391 1.72,-2.543 3.04,-3.32"
         style="fill:#dadbd8;fill-opacity:1;fill-rule:nonzero;stroke:none"
         id="path42" />
      <path
         d="m 2045.1,3384.7 42.03,-25.03 c 5.45,-3.24 5.01,-11.31 -0.77,-14.2 l -44.62,-22.32 c -1.4,-0.69 -2.58,-1.78 -3.39,-3.11 l -26.06,-42.55 c -3.38,-5.51 -11.45,-5.26 -14.21,0.45 l -21.34,44.03 c -0.67,1.38 -1.72,2.53 -3.05,3.31 l -42.03,25.04 c -5.45,3.24 -5.02,11.3 0.77,14.2 l 44.62,22.31 c 1.4,0.7 2.58,1.78 3.39,3.12 l 26.06,42.54 c 3.38,5.52 11.45,5.26 14.22,-0.44 l 21.33,-44.03 c 0.67,-1.38 1.73,-2.54 3.05,-3.32"
         style="fill:#dadbd8;fill-opacity:1;fill-rule:nonzero;stroke:none"
         id="path44" />
      <path
         d="m 2313.56,4229.11 42.04,-25.03 c 5.45,-3.25 5.01,-11.31 -0.77,-14.2 l -44.62,-22.32 c -1.4,-0.7 -2.58,-1.78 -3.39,-3.11 l -26.06,-42.55 c -3.38,-5.51 -11.45,-5.26 -14.22,0.45 l -21.33,44.03 c -0.67,1.37 -1.73,2.53 -3.05,3.31 l -42.04,25.03 c -5.45,3.25 -5.01,11.31 0.78,14.2 l 44.62,22.32 c 1.39,0.7 2.57,1.78 3.39,3.11 l 26.06,42.54 c 3.38,5.52 11.44,5.27 14.21,-0.44 l 21.34,-44.02 c 0.67,-1.39 1.72,-2.54 3.04,-3.32"
         style="fill:#dadbd8;fill-opacity:1;fill-rule:nonzero;stroke:none"
         id="path46" />
      <path
         d="m 951.805,3861.2 21.332,-12.7 c 2.765,-1.65 2.543,-5.74 -0.391,-7.21 l -22.641,-11.32 -1.722,-1.58 -13.223,-21.59 c -1.715,-2.8 -5.808,-2.67 -7.215,0.22 l -10.824,22.34 -1.547,1.69 -21.332,12.7 c -2.765,1.64 -2.543,5.73 0.395,7.2 l 22.64,11.33 1.723,1.58 13.219,21.59 c 1.719,2.8 5.808,2.67 7.215,-0.23 l 10.828,-22.34 1.543,-1.68"
         style="fill:#dadbd8;fill-opacity:1;fill-rule:nonzero;stroke:none"
         id="path48" />
      <path
         d="m 3329.89,3984.37 21.33,-12.7 c 2.77,-1.65 2.55,-5.74 -0.39,-7.21 l -22.64,-11.32 -1.72,-1.59 -13.22,-21.58 c -1.72,-2.8 -5.81,-2.67 -7.22,0.23 l -10.82,22.34 -1.55,1.68 -21.33,12.7 c -2.76,1.65 -2.54,5.74 0.39,7.21 l 22.65,11.32 1.72,1.58 13.22,21.59 c 1.71,2.8 5.81,2.67 7.21,-0.23 l 10.83,-22.34 1.54,-1.68"
         style="fill:#dadbd8;fill-opacity:1;fill-rule:nonzero;stroke:none"
         id="path50" />
      <path
         d="m 5308.14,4124.93 21.34,-12.7 c 2.76,-1.65 2.54,-5.74 -0.4,-7.21 l -22.64,-11.32 -1.72,-1.58 -13.22,-21.59 c -1.72,-2.8 -5.81,-2.67 -7.21,0.23 l -10.83,22.34 -1.55,1.68 -21.33,12.7 c -2.76,1.65 -2.54,5.74 0.4,7.21 l 22.64,11.32 1.72,1.58 13.22,21.59 c 1.72,2.8 5.81,2.67 7.21,-0.23 l 10.83,-22.34 1.54,-1.68"
         style="fill:#dadbd8;fill-opacity:1;fill-rule:nonzero;stroke:none"
         id="path52" />
      <path
         d="m 6674.3,4055.43 21.33,-12.7 c 2.77,-1.65 2.54,-5.74 -0.39,-7.21 l -22.64,-11.32 -1.72,-1.58 -13.23,-21.59 c -1.71,-2.8 -5.8,-2.67 -7.21,0.23 l -10.83,22.34 -1.54,1.68 -21.33,12.7 c -2.77,1.65 -2.55,5.73 0.39,7.2 l 22.64,11.33 1.72,1.58 13.22,21.59 c 1.72,2.8 5.81,2.67 7.22,-0.23 l 10.83,-22.34 1.54,-1.68"
         style="fill:#dadbd8;fill-opacity:1;fill-rule:nonzero;stroke:none"
         id="path54" />
      <path
         d="m 4232.35,66.0898 25.03,-14.621 c 3.25,-1.8868 3.03,-6.668 -0.38,-8.4102 l -26.32,-13.4492 -2,-1.8711 -15.22,-25.32814 c -1.97,-3.289066 -6.75,-3.179691 -8.42,0.1914 l -12.87,25.96874 -1.82,1.9492 -25.03,14.6094 c -3.25,1.9024 -3.03,6.6719 0.39,8.4219 L 4192.03,67 l 1.99,1.8594 15.22,25.3398 c 1.97,3.293 6.75,3.1797 8.42,-0.1875 l 12.87,-25.9726 1.82,-1.9493"
         style="fill:#dadbd8;fill-opacity:1;fill-rule:nonzero;stroke:none"
         id="path56" />
      <path
         d="m 6847.34,1878.8 25.04,-14.61 c 3.24,-1.9 3.02,-6.67 -0.39,-8.42 l -26.32,-13.45 -1.99,-1.86 -15.22,-25.34 c -1.97,-3.29 -6.75,-3.18 -8.42,0.19 l -12.87,25.97 -1.82,1.95 -25.04,14.62 c -3.24,1.89 -3.02,6.67 0.39,8.41 l 26.32,13.45 1.99,1.87 15.22,25.33 c 1.98,3.29 6.76,3.18 8.43,-0.18 l 12.86,-25.98 1.82,-1.95"
         style="fill:#dadbd8;fill-opacity:1;fill-rule:nonzero;stroke:none"
         id="path58" />
      <path
         d="m 393.496,1656.26 20.137,-11.99 c 2.609,-1.55 2.398,-5.41 -0.371,-6.8 l -21.371,-10.69 -1.629,-1.49 -12.481,-20.38 c -1.621,-2.64 -5.484,-2.52 -6.808,0.21 l -10.223,21.09 -1.457,1.59 -20.141,11.99 c -2.609,1.56 -2.398,5.41 0.375,6.8 l 21.371,10.69 1.625,1.49 12.485,20.38 c 1.617,2.65 5.48,2.53 6.808,-0.21 l 10.223,-21.09 1.457,-1.59"
         style="fill:#dadbd8;fill-opacity:1;fill-rule:nonzero;stroke:none"
         id="path60" />
      <path
         d="m 2519.9,169.191 20.13,-11.992 c 2.61,-1.551 2.4,-5.418 -0.37,-6.801 l -21.37,-10.687 -1.63,-1.492 -12.48,-20.379 c -1.62,-2.649 -5.48,-2.531 -6.81,0.211 l -10.22,21.09 -1.46,1.589 -20.13,11.989 c -2.62,1.551 -2.41,5.41 0.37,6.801 l 21.37,10.691 1.63,1.488 12.48,20.383 c 1.62,2.648 5.48,2.52 6.81,-0.211 l 10.22,-21.09 1.46,-1.59"
         style="fill:#dadbd8;fill-opacity:1;fill-rule:nonzero;stroke:none"
         id="path62" />
      <path
         d="m 6353.79,658.379 20.14,-11.988 c 2.61,-1.563 2.4,-5.422 -0.37,-6.801 l -21.38,-10.692 -1.62,-1.5 -12.48,-20.378 c -1.62,-2.641 -5.49,-2.52 -6.81,0.218 l -10.22,21.09 -1.46,1.594 -20.14,11.988 c -2.61,1.551 -2.4,5.41 0.37,6.801 l 21.38,10.687 1.62,1.493 12.48,20.379 c 1.62,2.64 5.49,2.519 6.81,-0.211 l 10.22,-21.09 1.46,-1.59"
         style="fill:#dadbd8;fill-opacity:1;fill-rule:nonzero;stroke:none"
         id="path64" />
      <path
         d="m 5928.4,183.422 20.14,-11.992 c 2.61,-1.551 2.4,-5.41 -0.37,-6.801 l -21.37,-10.688 -1.63,-1.492 -12.48,-20.379 c -1.62,-2.648 -5.49,-2.519 -6.81,0.211 l -10.22,21.09 -1.46,1.59 -20.14,11.988 c -2.61,1.563 -2.4,5.41 0.37,6.801 l 21.38,10.691 1.62,1.489 12.48,20.379 c 1.62,2.652 5.49,2.531 6.81,-0.207 l 10.22,-21.09 1.46,-1.59"
         style="fill:#dadbd8;fill-opacity:1;fill-rule:nonzero;stroke:none"
         id="path66" />
      <path
         d="m 6358.47,3242.75 21.82,-12.99 c 2.83,-1.68 2.6,-5.86 -0.4,-7.37 l -23.16,-11.58 -1.76,-1.62 -13.52,-22.07 c -1.75,-2.86 -5.94,-2.73 -7.38,0.23 l -11.07,22.85 -1.58,1.72 -21.82,12.99 c -2.82,1.68 -2.6,5.86 0.41,7.37 l 23.15,11.58 1.76,1.61 13.52,22.08 c 1.76,2.87 5.94,2.73 7.38,-0.23 l 11.07,-22.85 1.58,-1.72"
         style="fill:#dadbd8;fill-opacity:1;fill-rule:nonzero;stroke:none"
         id="path68" />
      <path
         d="m 5660.62,2862.29 10.4,-6.43 c 1.35,-0.84 1.3,-2.8 -0.08,-3.46 l -10.66,-5.11 -0.8,-0.73 -5.99,-10.18 c -0.78,-1.32 -2.74,-1.2 -3.46,0.22 l -5.52,10.91 -0.76,0.83 -10.41,6.44 c -1.34,0.83 -1.3,2.8 0.08,3.46 l 10.66,5.1 0.8,0.73 6,10.19 c 0.78,1.32 2.74,1.19 3.45,-0.22 l 5.53,-10.91 0.76,-0.84"
         style="fill:#f2575d;fill-opacity:1;fill-rule:nonzero;stroke:none"
         id="path70" />
      <path
         d="m 5668.79,1350.68 10.4,-6.43 c 1.35,-0.84 1.3,-2.8 -0.08,-3.47 l -10.66,-5.1 -0.8,-0.73 -6,-10.19 c -0.77,-1.32 -2.74,-1.19 -3.45,0.22 l -5.52,10.92 -0.77,0.83 -10.4,6.44 c -1.35,0.83 -1.3,2.79 0.08,3.46 l 10.66,5.1 0.8,0.73 6,10.19 c 0.77,1.32 2.73,1.19 3.45,-0.22 l 5.52,-10.92 0.77,-0.83"
         style="fill:#f2575d;fill-opacity:1;fill-rule:nonzero;stroke:none"
         id="path72" />
      <path
         d="m 6084.06,2043.37 20.12,-11.98 c 2.61,-1.55 2.4,-5.41 -0.37,-6.8 l -21.35,-10.68 -1.63,-1.49 -12.47,-20.36 c -1.62,-2.64 -5.48,-2.52 -6.8,0.22 l -10.21,21.07 -1.46,1.58 -20.12,11.98 c -2.61,1.56 -2.4,5.41 0.37,6.8 l 21.36,10.68 1.62,1.49 12.47,20.36 c 1.62,2.64 5.48,2.52 6.8,-0.21 l 10.22,-21.07 1.45,-1.59"
         style="fill:#f2575d;fill-opacity:1;fill-rule:nonzero;stroke:none"
         id="path74" />
      <path
         d="m 5549.05,2749.16 20.24,-12.52 c 2.62,-1.63 2.54,-5.45 -0.15,-6.74 l -20.75,-9.93 -1.56,-1.43 -11.67,-19.82 c -1.51,-2.57 -5.33,-2.33 -6.72,0.43 l -10.75,21.24 -1.49,1.62 -20.24,12.53 c -2.62,1.62 -2.54,5.44 0.15,6.73 l 20.75,9.93 1.56,1.43 11.67,19.82 c 1.51,2.57 5.33,2.33 6.72,-0.43 l 10.75,-21.24 1.49,-1.62"
         style="fill:#f2575d;fill-opacity:1;fill-rule:nonzero;stroke:none"
         id="path76" />
      <path
         d="m 798.227,2160.94 15.277,-9.74 c 1.98,-1.27 1.879,-4.18 -0.184,-5.13 l -15.894,-7.34 -1.199,-1.08 -9.086,-14.96 c -1.18,-1.94 -4.082,-1.72 -5.114,0.39 l -7.961,16.28 -1.117,1.25 -15.281,9.74 c -1.98,1.26 -1.875,4.17 0.184,5.12 l 15.898,7.35 1.195,1.07 9.09,14.97 c 1.18,1.94 4.078,1.72 5.113,-0.39 l 7.961,-16.28 1.118,-1.25"
         style="fill:#f2575d;fill-opacity:1;fill-rule:nonzero;stroke:none"
         id="path78" />
      <path
         d="m 1129.45,1814.88 14.77,-8.45 c 1.92,-1.1 1.95,-3.83 0.06,-4.82 l -14.59,-7.61 -1.07,-1.06 -7.86,-14.45 c -1.02,-1.88 -3.75,-1.8 -4.82,0.14 l -8.2,14.92 -1.1,1.12 -14.78,8.46 c -1.91,1.09 -1.95,3.83 -0.05,4.81 l 14.58,7.61 1.08,1.06 7.85,14.45 c 1.02,1.88 3.76,1.8 4.82,-0.13 l 8.2,-14.92 1.11,-1.13"
         style="fill:#f2575d;fill-opacity:1;fill-rule:nonzero;stroke:none"
         id="path80" />
      <path
         d="m 1572.42,2961.32 14.78,-8.46 c 1.91,-1.09 1.95,-3.83 0.06,-4.82 l -14.59,-7.6 -1.08,-1.06 -7.85,-14.46 c -1.02,-1.87 -3.76,-1.79 -4.82,0.14 l -8.2,14.92 -1.11,1.12 -14.77,8.46 c -1.92,1.1 -1.95,3.83 -0.06,4.82 l 14.59,7.61 1.07,1.06 7.86,14.45 c 1.02,1.87 3.75,1.79 4.82,-0.14 l 8.2,-14.92 1.1,-1.12"
         style="fill:#f2575d;fill-opacity:1;fill-rule:nonzero;stroke:none"
         id="path82" />
      <path
         d="m 2721.83,3204.29 14.78,-8.46 c 1.91,-1.09 1.95,-3.83 0.06,-4.81 l -14.59,-7.61 -1.08,-1.06 -7.85,-14.46 c -1.02,-1.87 -3.76,-1.79 -4.82,0.14 l -8.2,14.92 -1.11,1.13 -14.77,8.45 c -1.92,1.1 -1.95,3.83 -0.06,4.82 l 14.59,7.61 1.07,1.06 7.86,14.45 c 1.02,1.88 3.75,1.8 4.82,-0.14 l 8.2,-14.92 1.1,-1.12"
         style="fill:#f2575d;fill-opacity:1;fill-rule:nonzero;stroke:none"
         id="path84" />
      <path
         d="m 1021.38,1759.22 29.35,-16.8 c 3.8,-2.18 3.86,-7.61 0.11,-9.57 l -28.97,-15.1 c -0.91,-0.48 -1.65,-1.21 -2.14,-2.11 l -15.6,-28.7 c -2.02,-3.73 -7.454,-3.57 -9.564,0.27 l -16.293,29.63 c -0.507,0.93 -1.269,1.7 -2.191,2.23 l -29.344,16.8 c -3.804,2.18 -3.871,7.6 -0.113,9.57 l 28.969,15.1 c 0.906,0.48 1.648,1.21 2.14,2.11 l 15.602,28.7 c 2.023,3.72 7.454,3.57 9.564,-0.27 l 16.29,-29.63 c 0.51,-0.93 1.27,-1.71 2.19,-2.23"
         style="fill:#f2575d;fill-opacity:1;fill-rule:nonzero;stroke:none"
         id="path86" />
      <path
         d="m 2929.08,3357.86 29.34,-16.8 c 3.81,-2.17 3.87,-7.61 0.12,-9.56 l -28.97,-15.11 c -0.91,-0.48 -1.65,-1.21 -2.14,-2.11 l -15.6,-28.7 c -2.03,-3.72 -7.45,-3.57 -9.57,0.28 l -16.29,29.62 c -0.51,0.93 -1.27,1.71 -2.19,2.23 l -29.34,16.8 c -3.81,2.18 -3.87,7.61 -0.12,9.57 l 28.97,15.11 c 0.91,0.47 1.65,1.2 2.14,2.1 l 15.6,28.7 c 2.03,3.73 7.45,3.57 9.57,-0.27 l 16.29,-29.63 c 0.51,-0.93 1.27,-1.71 2.19,-2.23"
         style="fill:#f2575d;fill-opacity:1;fill-rule:nonzero;stroke:none"
         id="path88" />
      <path
         d="m 2509.8,504.461 29.35,-16.801 c 3.8,-2.18 3.87,-7.609 0.11,-9.57 l -28.97,-15.11 c -0.91,-0.468 -1.65,-1.199 -2.14,-2.101 l -15.6,-28.707 c -2.02,-3.723 -7.45,-3.563 -9.56,0.277 l -16.3,29.629 c -0.51,0.934 -1.27,1.703 -2.19,2.231 l -29.34,16.8 c -3.81,2.172 -3.87,7.602 -0.11,9.563 l 28.96,15.109 c 0.91,0.481 1.65,1.207 2.14,2.11 l 15.6,28.699 c 2.03,3.719 7.46,3.558 9.57,-0.281 l 16.29,-29.618 c 0.51,-0.929 1.27,-1.711 2.19,-2.23"
         style="fill:#f2575d;fill-opacity:1;fill-rule:nonzero;stroke:none"
         id="path90" />
      <path
         d="m 5239.68,1025.77 29.34,-16.8 c 3.81,-2.18 3.87,-7.61 0.12,-9.572 l -28.97,-15.097 c -0.91,-0.481 -1.65,-1.211 -2.14,-2.11 l -15.6,-28.703 c -2.03,-3.726 -7.46,-3.566 -9.57,0.274 l -16.29,29.629 c -0.51,0.929 -1.27,1.699 -2.19,2.23 l -29.35,16.799 c -3.8,2.18 -3.87,7.61 -0.11,9.57 l 28.97,15.1 c 0.91,0.48 1.65,1.21 2.14,2.11 l 15.6,28.7 c 2.02,3.73 7.45,3.57 9.57,-0.27 l 16.29,-29.63 c 0.51,-0.93 1.27,-1.71 2.19,-2.23"
         style="fill:#f2575d;fill-opacity:1;fill-rule:nonzero;stroke:none"
         id="path92" />
      <path
         d="m 4836.2,3197.48 19.11,-10.94 c 2.48,-1.42 2.52,-4.96 0.07,-6.23 l -18.86,-9.84 -1.39,-1.37 -10.16,-18.69 c -1.32,-2.42 -4.85,-2.32 -6.23,0.18 l -10.6,19.29 -1.43,1.46 -19.11,10.93 c -2.47,1.42 -2.51,4.95 -0.07,6.23 l 18.86,9.84 1.4,1.37 10.15,18.69 c 1.32,2.42 4.86,2.32 6.23,-0.18 l 10.61,-19.29 1.42,-1.45"
         style="fill:#f2575d;fill-opacity:1;fill-rule:nonzero;stroke:none"
         id="path94" />
      <path
         d="m 2726.13,3659.56 c -119.34,-38.66 -233.86,-21.23 -255.78,38.93 -21.92,60.16 57.05,140.26 176.39,178.92 119.33,38.66 233.85,21.23 255.77,-38.93 21.93,-60.16 -57.04,-140.26 -176.38,-178.92"
         style="fill:#17282f;fill-opacity:1;fill-rule:nonzero;stroke:none"
         id="path96" />
      <path
         d="m 2658.27,3844.18 c 108.78,35.23 213.53,23.87 247.83,-23.97 -0.26,6.24 -1.43,12.36 -3.59,18.27 -21.92,60.16 -136.44,77.59 -255.77,38.93 -119.34,-38.66 -198.31,-118.76 -176.39,-178.92 1.94,-5.33 4.62,-10.31 7.95,-14.96 -2.4,57.24 72.37,125.79 179.97,160.65"
         style="fill:#33535f;fill-opacity:1;fill-rule:nonzero;stroke:none"
         id="path98" />
      <path
         d="m 5344.27,785.379 c 172.68,161.641 396.99,202.902 501.01,92.152 104.03,-110.75 48.38,-331.57 -124.3,-493.211 -172.67,-161.648 -396.99,-202.898 -501.01,-92.148 -104.03,110.75 -48.38,331.566 124.3,493.207"
         style="fill:#17282f;fill-opacity:1;fill-rule:nonzero;stroke:none"
         id="path100" />
      <path
         d="M 5664.55,445.879 C 5507.16,298.551 5306.89,251.262 5193.89,327.898 c 7.18,-12.859 15.85,-24.839 26.08,-35.726 104.02,-110.75 328.34,-69.5 501.01,92.148 172.68,161.641 228.33,382.45 124.3,493.211 -9.21,9.797 -19.38,18.391 -30.35,25.84 65.84,-117.91 5.31,-311.742 -150.38,-457.492"
         style="fill:#33535f;fill-opacity:1;fill-rule:nonzero;stroke:none"
         id="path102" />
      <path
         d="m 3961.14,3118.05 c -312.99,53.33 -541.23,192.37 -509.79,310.55 31.44,118.19 310.66,170.75 623.66,117.42 312.99,-53.34 541.23,-192.37 509.79,-310.55 -31.44,-118.18 -310.66,-170.75 -623.66,-117.42"
         style="fill:#17282f;fill-opacity:1;fill-rule:nonzero;stroke:none"
         id="path104" />
      <path
         d="m 4056.38,3481.29 c 285.28,-48.61 500.12,-168.42 512.12,-278.74 7.68,10.31 13.21,21.29 16.3,32.92 31.44,118.18 -196.8,257.21 -509.79,310.55 -313,53.33 -592.22,0.77 -623.66,-117.41 -2.79,-10.47 -3.49,-21.1 -2.33,-31.82 70.43,94.57 325.15,132.59 607.36,84.5"
         style="fill:#33535f;fill-opacity:1;fill-rule:nonzero;stroke:none"
         id="path106" />
      <path
         d="m 3993.82,3350.78 c 71.7,-37.46 119.87,-108.3 186.32,-154.43 43.96,-30.53 97.34,-51.6 126.95,-96.19 -2.93,26.08 -20.77,47.76 -38.6,67.01 -50.23,54.22 -106.6,102.74 -167.7,144.33 -31.35,21.35 -66.19,41.54 -104.13,41.28 l -2.84,-2"
         style="fill:#33535f;fill-opacity:1;fill-rule:nonzero;stroke:none"
         id="path108" />
      <path
         d="m 4307.09,3100.16 c -0.45,0.69 -0.91,1.36 -1.38,2.04 -29.86,43.2 -82.28,64.09 -125.57,94.15 -66.45,46.13 -114.62,116.97 -186.32,154.43 l 2.84,2 c 0.25,0 0.48,0 0.73,0 37.65,0 72.25,-20.06 103.4,-41.28 61.1,-41.59 117.47,-90.11 167.7,-144.33 17.83,-19.25 35.67,-40.93 38.6,-67.01"
         style="fill:#263f48;fill-opacity:1;fill-rule:nonzero;stroke:none"
         id="path110" />
      <path
         d="m 4334.98,4318.58 c -1.29,11.63 -3.41,23.95 -11.3,32.59 -10.82,11.83 -28.9,13.04 -44.89,11.85 -68.23,-5.11 -154.95,-106.19 -196.71,-160.4 l 7,-300.94 c 186.78,97.86 261.94,272.41 245.9,416.9"
         style="fill:#33535f;fill-opacity:1;fill-rule:nonzero;stroke:none"
         id="path112" />
      <path
         d="m 4089.08,3901.68 -2.57,110.53 c 0.47,1.5 0.71,2.27 0.71,2.27 l -0.77,0.21 -4.37,187.93 c 41.76,54.21 128.48,155.29 196.71,160.4 3.01,0.22 6.09,0.36 9.18,0.36 13.35,0 26.92,-2.61 35.71,-12.21 7.89,-8.64 10.01,-20.96 11.3,-32.59 1.4,-12.56 2.1,-25.34 2.1,-38.29 0.03,-135.97 -77.46,-289.25 -248,-378.61"
         style="fill:#263f48;fill-opacity:1;fill-rule:nonzero;stroke:none"
         id="path114" />
      <path
         d="m 4039.59,3700.65 c 35.7,11.94 71.49,22.84 107.04,28.62 35.54,5.78 71.28,20.66 106.33,28.9 45.45,10.69 87.88,31.19 131.47,47.9 43.59,16.72 90.07,29.88 136.48,24.83 -34.25,17.35 -73.28,23.56 -111.68,23.52 -38.4,-0.05 -76.5,-6.11 -114.42,-12.15 -52.63,-8.38 -106.21,-17.07 -153.86,-40.95 -47.64,-23.87 -91.48,-48.3 -101.36,-100.67"
         style="fill:#33535f;fill-opacity:1;fill-rule:nonzero;stroke:none"
         id="path116" />
      <path
         d="m 4039.59,3700.65 c 9.88,52.37 53.72,76.8 101.36,100.67 47.65,23.88 101.23,32.57 153.86,40.95 37.92,6.04 76.02,12.1 114.42,12.15 0.15,0 0.3,0 0.45,0 38.26,0 77.11,-6.24 111.23,-23.52 -6.83,0.74 -13.67,1.09 -20.5,1.09 -39.54,0 -78.81,-11.66 -115.98,-25.92 -43.59,-16.71 -86.02,-37.21 -131.47,-47.9 -35.05,-8.24 -70.79,-23.12 -106.33,-28.9 -35.55,-5.78 -71.34,-16.68 -107.04,-28.62"
         style="fill:#263f48;fill-opacity:1;fill-rule:nonzero;stroke:none"
         id="path118" />
      <path
         d="m 3797.34,3690.4 c -46.17,67.65 -138.58,87.37 -218.08,107.05 105.69,-91.07 214.95,-206.25 296.53,-319.42 18.39,54.99 -20.14,126.92 -78.45,212.37"
         style="fill:#33535f;fill-opacity:1;fill-rule:nonzero;stroke:none"
         id="path120" />
      <path
         d="m 3875.79,3478.03 c -81.58,113.17 -190.84,228.35 -296.53,319.42 79.5,-19.68 171.91,-39.4 218.08,-107.05 48.29,-70.77 83.01,-132.26 83.08,-182.54 0,-2.43 -0.08,-4.84 -0.24,-7.22 -0.53,-7.83 -1.97,-15.37 -4.39,-22.61"
         style="fill:#263f48;fill-opacity:1;fill-rule:nonzero;stroke:none"
         id="path122" />
      <path
         d="m 3856.89,3270.49 c -95.07,27.48 -173.52,136.09 -267.25,166.76 108.19,5.09 243.48,-59.83 267.25,-166.76"
         style="fill:#33535f;fill-opacity:1;fill-rule:nonzero;stroke:none"
         id="path124" />
      <path
         d="m 3856.89,3270.49 c -95.07,27.48 -173.52,136.09 -267.25,166.76 3.96,0.19 7.96,0.28 11.99,0.28 105.96,0 232.36,-64.03 255.26,-167.04"
         style="fill:#263f48;fill-opacity:1;fill-rule:nonzero;stroke:none"
         id="path126" />
      <path
         d="m 3951.55,3489.98 c 53.24,4.3 106.7,-9.34 155.48,-31.09 48.78,-21.75 93.53,-51.44 138.03,-81 4.1,34.47 -15.97,66.67 -35.18,95.57 -14.46,21.74 -29.04,43.63 -47.35,62.25 -18.31,18.62 -40.8,33.97 -66.26,39.75 -30.73,6.97 -63.9,-0.85 -90.06,-18.41 -26.16,-17.55 -43.15,-37.75 -54.66,-67.07"
         style="fill:#33535f;fill-opacity:1;fill-rule:nonzero;stroke:none"
         id="path128" />
      <path
         d="m 3864.1,3139.63 c 0,0 47.16,322.48 99.48,500.32 52.32,177.85 103.04,380.13 103.04,380.13 l 20.6,-5.6 c 0,0 -110.4,-351.22 -153.38,-569.46 -42.96,-218.07 -28.75,-316.05 -28.75,-316.05 l -40.99,10.66"
         style="fill:#33535f;fill-opacity:1;fill-rule:nonzero;stroke:none"
         id="path130" />
      <path
         d="m 4315.79,4341.21 c 0.1,-0.08 -0.66,-1.21 -2.19,-3.31 -1.78,-2.38 -4.04,-5.37 -6.8,-9.04 -6,-7.79 -14.55,-19.15 -24.92,-33.32 -20.77,-28.31 -48.29,-68.31 -75.68,-114.36 -27.34,-46.09 -49.32,-89.39 -64.25,-121.17 -7.48,-15.88 -13.37,-28.82 -17.33,-37.81 -1.91,-4.19 -3.46,-7.6 -4.69,-10.31 -1.11,-2.34 -1.75,-3.54 -1.86,-3.5 -0.11,0.05 0.3,1.34 1.2,3.78 1.07,2.77 2.43,6.27 4.08,10.56 3.58,9.17 9.13,22.28 16.34,38.33 14.37,32.1 36.06,75.71 63.48,121.93 27.46,46.17 55.39,86.06 76.71,114.05 10.65,14 19.5,25.15 25.85,32.67 2.97,3.51 5.4,6.37 7.32,8.64 1.71,1.95 2.65,2.94 2.74,2.86"
         style="fill:#33535f;fill-opacity:1;fill-rule:nonzero;stroke:none"
         id="path132" />
      <path
         d="m 4032.05,3856.35 c -61.49,68.05 -79.1,162.35 -53.48,250.42 17.91,61.56 56.94,114.59 97.57,164.18 3.53,4.31 7.53,8.87 12.99,9.89 7.61,1.42 14.48,-4.53 19.59,-10.34 44.36,-50.38 57.19,-121.76 54.02,-188.82 -2.11,-44.61 -10.68,-89.48 -30.56,-129.48 -19.88,-40 -59.49,-77.34 -100.13,-95.85"
         style="fill:#33535f;fill-opacity:1;fill-rule:nonzero;stroke:none"
         id="path134" />
      <path
         d="m 4032.05,3856.35 c -0.12,0.04 0.22,1.33 0.96,3.76 0.9,2.78 2.02,6.27 3.4,10.54 3.1,9.1 7.26,22.38 12.09,38.87 9.7,32.95 20.83,79.16 29.26,130.91 8.39,51.78 13.22,99.06 16.57,133.28 1.61,16.76 2.93,30.49 3.89,40.56 0.48,4.46 0.87,8.11 1.18,11.02 0.31,2.51 0.53,3.83 0.65,3.82 0.12,-0.01 0.14,-1.34 0.06,-3.88 -0.14,-2.92 -0.31,-6.58 -0.52,-11.07 -0.51,-9.61 -1.43,-23.51 -2.77,-40.66 -2.72,-34.31 -7.17,-81.72 -15.57,-133.64 -8.46,-51.9 -20.02,-98.2 -30.36,-131.06 -5.15,-16.44 -9.68,-29.63 -13.19,-38.6 -1.63,-4.19 -2.96,-7.61 -4.03,-10.34 -0.95,-2.34 -1.51,-3.56 -1.62,-3.51"
         style="fill:#17282f;fill-opacity:1;fill-rule:nonzero;stroke:none"
         id="path136" />
      <path
         d="m 4245.06,3377.89 c -44.5,29.56 -89.25,59.25 -138.03,81 -42.72,19.06 -89.03,31.88 -135.64,31.88 -6.61,0 -13.23,-0.26 -19.84,-0.79 11.51,29.32 28.5,49.52 54.66,67.07 19.72,13.24 43.44,20.94 67.08,20.94 7.71,0 15.42,-0.82 22.98,-2.53 25.46,-5.78 47.95,-21.13 66.26,-39.75 18.31,-18.62 32.89,-40.51 47.35,-62.25 17.49,-26.3 35.68,-55.34 35.71,-86.33 0.01,-3.06 -0.17,-6.14 -0.53,-9.24"
         style="fill:#263f48;fill-opacity:1;fill-rule:nonzero;stroke:none"
         id="path138" />
      <path
         d="m 4184.75,3227.34 c -0.08,-0.08 -1,0.65 -2.66,2.13 -1.94,1.78 -4.31,3.95 -7.17,6.58 -6.14,5.78 -14.93,14.25 -26.15,24.32 -5.51,5.15 -11.68,10.63 -18.44,16.36 -6.62,5.89 -13.92,11.9 -21.7,18.11 -15.59,12.32 -33.14,25.53 -53.23,36.46 -19.98,11.07 -41,18.02 -60.83,18.18 -9.95,0.28 -19.35,0.44 -28.06,-0.7 -8.72,-1.05 -16.73,-2.86 -23.87,-5.06 -14.33,-4.38 -25.1,-10.22 -32.24,-14.6 -7.14,-4.42 -10.82,-7.31 -11.01,-7.06 -0.08,0.09 0.77,0.89 2.47,2.34 1.68,1.47 4.3,3.47 7.79,5.88 6.99,4.77 17.73,11.05 32.23,15.82 7.23,2.39 15.37,4.39 24.26,5.59 8.91,1.29 18.55,1.24 28.53,1.04 20.32,0.03 42.19,-7.09 62.41,-18.32 20.41,-11.12 38.02,-24.51 53.59,-37.04 7.76,-6.31 15.03,-12.44 21.59,-18.44 6.7,-5.85 12.79,-11.45 18.2,-16.73 11.04,-10.33 19.57,-19.09 25.43,-25.17 2.68,-2.82 4.89,-5.15 6.7,-7.06 1.5,-1.64 2.25,-2.54 2.16,-2.63"
         style="fill:#33535f;fill-opacity:1;fill-rule:nonzero;stroke:none"
         id="path140" />
      <path
         d="m 3798.52,3337.16 c 0.14,0.2 2.09,-1.01 5.51,-3.38 3.44,-2.31 8.16,-6.05 13.72,-10.99 11.12,-9.83 25.09,-25.23 36.83,-44.74 11.68,-19.56 18.69,-39.13 22.12,-53.58 1.74,-7.22 2.81,-13.15 3.23,-17.28 0.48,-4.12 0.63,-6.41 0.38,-6.44 -0.61,-0.1 -1.98,8.96 -6.02,23.08 -4.01,14.11 -11.26,33.18 -22.74,52.4 -11.54,19.18 -24.95,34.56 -35.51,44.74 -10.55,10.22 -17.89,15.69 -17.52,16.19"
         style="fill:#33535f;fill-opacity:1;fill-rule:nonzero;stroke:none"
         id="path142" />
      <path
         d="m 3673.18,3722.19 c 0.07,0.1 1.36,-0.7 3.75,-2.31 2.67,-1.85 6.1,-4.24 10.35,-7.19 4.58,-3.26 10.01,-7.13 16.26,-11.57 6.33,-4.53 12.93,-10.48 20.55,-16.64 30.13,-24.94 68.75,-63.64 102.79,-112.97 16.64,-24.89 31.1,-49.52 42.46,-72.84 11.29,-23.33 20.36,-44.87 26.98,-63.31 6.71,-18.4 11.48,-33.51 14.73,-43.95 1.54,-4.93 2.78,-8.92 3.75,-12.02 0.84,-2.75 1.23,-4.21 1.11,-4.26 -0.11,-0.04 -0.72,1.34 -1.78,4.03 -1.07,2.68 -2.59,6.65 -4.39,11.81 -3.65,10.32 -8.77,25.28 -15.75,43.51 -6.9,18.27 -16.18,39.61 -27.56,62.75 -11.46,23.11 -25.93,47.55 -42.46,72.28 -33.84,49.03 -71.9,87.74 -101.5,113.07 -7.49,6.26 -13.95,12.31 -20.14,16.98 -6.09,4.62 -11.39,8.63 -15.86,12.02 -4.08,3.17 -7.38,5.73 -9.95,7.72 -2.25,1.8 -3.4,2.79 -3.34,2.89"
         style="fill:#33535f;fill-opacity:1;fill-rule:nonzero;stroke:none"
         id="path144" />
      <path
         d="m 4109.41,3504.73 c -0.12,-0.21 -2.74,0.88 -7.35,3.04 -2.49,1.2 -5.25,2.53 -8.33,4.01 -3.23,1.58 -7.21,2.68 -11.42,4.31 -16.84,5.91 -42.24,11.29 -69.14,4.88 -13.46,-2.77 -25.57,-8.15 -35.88,-14.05 -10.43,-5.79 -18.95,-12.47 -25.65,-18.52 -13.57,-12.06 -19.4,-21.85 -19.93,-21.48 -0.17,0.1 1.09,2.65 3.96,6.92 3.01,4.14 7.54,10.11 14.27,16.39 6.6,6.39 15.13,13.41 25.71,19.5 10.47,6.19 22.89,11.82 36.74,14.68 27.76,6.61 53.92,0.64 70.78,-5.98 4.23,-1.8 8.2,-3.09 11.39,-4.86 3.01,-1.69 5.71,-3.21 8.15,-4.58 4.44,-2.55 6.82,-4.06 6.7,-4.26"
         style="fill:#33535f;fill-opacity:1;fill-rule:nonzero;stroke:none"
         id="path146" />
      <path
         d="m 4299.38,3818.12 c 0.02,-0.12 -1.43,-0.54 -4.22,-1.24 -3.16,-0.75 -7.21,-1.71 -12.23,-2.9 -10.62,-2.47 -25.95,-6.21 -44.74,-11.35 -18.74,-5.3 -40.96,-12.01 -65.09,-20.97 -24.08,-9 -50.29,-19.95 -75.82,-34.96 -12.65,-7.61 -24.64,-15.88 -34.15,-25.84 -9.51,-10.32 -18.65,-20.3 -27.17,-29.95 -17.1,-19.27 -31.66,-37.34 -42.94,-53.19 -11.26,-15.87 -19.29,-29.45 -24.46,-39.02 -5.22,-9.56 -7.67,-15.08 -7.99,-14.93 -0.11,0.05 0.42,1.46 1.53,4.12 1.1,2.66 2.78,6.56 5.24,11.44 4.82,9.81 12.57,23.67 23.64,39.82 11.08,16.13 25.52,34.46 42.53,53.9 8.49,9.74 17.59,19.79 27.08,30.15 9.89,10.43 22.07,18.81 34.88,26.53 25.84,15.2 52.24,26.11 76.51,34.98 24.31,8.84 46.68,15.33 65.56,20.33 18.93,4.84 34.38,8.22 45.1,10.29 5.08,0.92 9.18,1.67 12.38,2.24 2.83,0.48 4.33,0.67 4.36,0.55"
         style="fill:#33535f;fill-opacity:1;fill-rule:nonzero;stroke:none"
         id="path148" />
      <path
         d="m 3948.76,3539.59 c -0.24,0.01 -0.33,3.06 -0.27,8.56 0.08,6.21 0.17,14 0.28,23.27 0.12,19.62 -0.27,46.77 -3.64,76.48 -3.27,29.74 -9.21,56.24 -13.6,75.37 -2.1,9.03 -3.86,16.62 -5.26,22.68 -1.22,5.36 -1.78,8.36 -1.54,8.43 0.23,0.06 1.24,-2.82 2.86,-8.08 1.62,-5.26 3.84,-12.91 6.36,-22.42 5.02,-19.02 11.39,-45.61 14.69,-75.58 3.39,-29.94 3.39,-57.27 2.63,-76.94 -0.41,-9.84 -0.88,-17.79 -1.41,-23.27 -0.47,-5.49 -0.85,-8.52 -1.1,-8.5"
         style="fill:#33535f;fill-opacity:1;fill-rule:nonzero;stroke:none"
         id="path150" />
      <path
         d="m 3986.32,3761.66 c 4.96,37.14 0.22,75.16 -10.4,111.09 -29.1,98.51 -104.25,182.36 -199,222.03 50.54,-122.37 101.07,-244.73 151.61,-367.1 l 16.36,-63.35 c 25.44,27.49 36.46,60.2 41.43,97.33"
         style="fill:#33535f;fill-opacity:1;fill-rule:nonzero;stroke:none"
         id="path152" />
      <path
         d="m 3944.89,3664.33 -16.36,63.35 c -50.54,122.37 -101.07,244.73 -151.61,367.1 94.75,-39.67 169.9,-123.52 199,-222.03 7.76,-26.25 12.38,-53.61 12.37,-80.93 0,-10.07 -0.64,-20.14 -1.97,-30.16 -4.97,-37.13 -15.99,-69.84 -41.43,-97.33"
         style="fill:#263f48;fill-opacity:1;fill-rule:nonzero;stroke:none"
         id="path154" />
      <path
         d="m 1985.35,800.789 c 176.38,-176.449 227.64,-411.5 114.48,-525.008 -113.16,-113.5 -347.89,-62.472 -524.27,113.981 -176.39,176.449 -227.65,411.508 -114.49,525.008 113.16,113.5 347.89,62.468 524.28,-113.981"
         style="fill:#17282f;fill-opacity:1;fill-rule:nonzero;stroke:none"
         id="path156" />
      <path
         d="m 1638.51,451.391 c -160.77,160.828 -217.56,370.32 -140.67,492.109 -13.32,-8.02 -25.64,-17.57 -36.77,-28.73 -113.16,-113.5 -61.9,-348.559 114.49,-525.008 176.38,-176.453 411.11,-227.481 524.27,-113.981 10.02,10.047 18.73,21.071 26.19,32.899 C 2004,235.191 1797.55,292.289 1638.51,451.391"
         style="fill:#33535f;fill-opacity:1;fill-rule:nonzero;stroke:none"
         id="path158" />
      <path
         d="m 1818.37,668.23 142.47,151.7 16.95,-16.95 c 0,0 -120.53,-139.98 -122.45,-173.421 l -36.97,38.671"
         style="fill:#33535f;fill-opacity:1;fill-rule:nonzero;stroke:none"
         id="path160" />
      <path
         d="m 1586.19,755.559 -195.09,-291.27 295.63,-295.687 293.81,224.16 -394.35,362.797"
         style="fill:#f2575d;fill-opacity:1;fill-rule:nonzero;stroke:none"
         id="path162" />
      <path
         d="m 1688.64,170.238 c -26.71,-26.187 -113.84,19.383 -194.6,101.762 -80.77,82.391 -124.59,170.41 -97.87,196.59 26.71,26.191 113.84,-19.371 194.6,-101.762 80.76,-82.387 124.58,-170.406 97.87,-196.59"
         style="fill:#f2575d;fill-opacity:1;fill-rule:nonzero;stroke:none"
         id="path164" />
      <path
         d="m 1667.13,162.84 c -38.32,0 -107.78,42.539 -173.09,109.16 -64.68,65.98 -105.66,135.559 -105.71,174.109 -0.01,9.602 2.51,17.27 7.84,22.481 5.11,5.012 12.44,7.398 21.51,7.398 38.32,0 107.78,-42.539 173.09,-109.16 64.67,-65.976 105.66,-135.558 105.7,-174.109 0.02,-9.59 -2.51,-17.258 -7.83,-22.481 -5.11,-5.008 -12.44,-7.398 -21.51,-7.398"
         style="fill:#cc4341;fill-opacity:1;fill-rule:nonzero;stroke:none"
         id="path166" />
      <path
         d="m 1989.31,370.441 c -24.41,-22.203 -147.89,-3.269 -282.68,120.731 -134.79,124.008 -211.17,217.316 -142.4,290 56.51,59.738 169.28,14.316 304.07,-109.692 134.78,-124 201.19,-228.101 121.01,-301.039"
         style="fill:#f2575d;fill-opacity:1;fill-rule:nonzero;stroke:none"
         id="path168" />
      <path
         d="m 1686.73,168.602 c -0.08,0.097 1.53,1.507 4.72,4.148 3.47,2.82 8.18,6.641 14.18,11.512 12.78,10.168 31.03,24.668 54.03,42.968 46.92,36.872 113.23,88.989 191.98,150.891 l -0.28,-0.262 c 6.12,6.782 6.13,17.61 4.22,27.371 -1.9,9.989 -5.66,19.872 -10.16,29.532 -9.08,19.34 -21.03,38.09 -34.37,56.41 -26.77,36.637 -59.24,71.769 -94.92,105.269 -38.93,36.45 -79.76,68.649 -121.56,94.321 -20.91,12.738 -42.07,23.968 -63.58,31.988 -10.75,3.898 -21.6,7.25 -32.42,8.48 -10.56,1.352 -22.21,0.622 -28.96,-6.332 l 0.22,0.27 c -53.09,-78.008 -97.5,-143.277 -128.87,-189.367 -15.56,-22.59 -27.88,-40.461 -36.52,-53 -4.13,-5.871 -7.38,-10.481 -9.78,-13.883 -2.24,-3.117 -3.45,-4.699 -3.56,-4.629 -0.1,0.07 0.91,1.781 2.96,5.031 2.26,3.5 5.32,8.239 9.21,14.27 8.39,12.711 20.35,30.82 35.47,53.711 30.98,46.347 74.87,111.98 127.31,190.418 l 0.09,0.14 0.12,0.129 c 4.15,4.461 9.97,6.782 15.64,7.75 5.73,1 11.53,0.864 17.21,0.172 11.43,-1.269 22.54,-4.672 33.55,-8.621 21.99,-8.117 43.39,-19.418 64.54,-32.23 42.23,-25.797 83.34,-58.161 122.49,-94.821 35.88,-33.687 68.5,-69.039 95.46,-106.09 13.43,-18.527 25.48,-37.519 34.71,-57.339 4.57,-9.911 8.43,-20.09 10.42,-30.7 1.89,-10.269 2.34,-22.539 -5.49,-31.398 l -0.12,-0.133 -0.16,-0.129 c -79.24,-61.289 -145.94,-112.89 -193.14,-149.41 -23.35,-17.859 -41.86,-32.008 -54.84,-41.93 -6.19,-4.64 -11.05,-8.269 -14.62,-10.949 -3.34,-2.449 -5.1,-3.66 -5.18,-3.558"
         style="fill:#17282f;fill-opacity:1;fill-rule:nonzero;stroke:none"
         id="path170" />
      <path
         d="m 2582.44,1730.62 v 718.46 h -5.12 l -276.35,-718.46 h 281.47 m 0,-263.17 H 2045.1 v 263.17 l 511.75,1244.79 h 307.06 V 1730.62 h 133.06 v -263.17 h -133.06 v -334.23 h -281.47 v 334.23"
         style="transform: translateY(-203px);fill:#f2575d;fill-opacity:1;fill-rule:nonzero;stroke:none"
         id="path190" />
      <path
         d="m 2863.91,1133.22 h -281.47 v 334.23 H 2045.1 v 263.17 l 511.75,1244.79 h 307.06 V 1730.62 h 133.06 v -263.17 h -133.06 v -334.23 m -562.94,597.4 v 0 h 281.47 v 718.46 h -5.12 l -276.35,-718.46"
         style="transform: translateY(-203px);fill:#cc4341;fill-opacity:1;fill-rule:nonzero;stroke:none"
         id="path192" />
      <path
         d="m 2454.3,1730.63 v 718.46 h -5.12 l -276.35,-718.46 z m 0,-263.17 h -537.35 v 263.17 l 511.76,1244.79 h 307.05 V 1730.63 h 133.06 V 1467.46 H 2735.76 V 1133.23 H 2454.3 v 334.23"
         style="transform: translateY(-203px);fill:#f2575d;fill-opacity:1;fill-rule:nonzero;stroke:none"
         id="path194" />
      <path
         d="m 3685.03,1551.66 v 1005.31 c 0,121.06 -48.61,181.58 -145.85,181.58 -97.22,0 -145.84,-60.52 -145.84,-181.58 V 1551.66 c 0,-121.07 48.62,-181.59 145.84,-181.59 97.24,0 145.85,60.52 145.85,181.59 m -463.13,-323.7 c -73.36,80.67 -110.03,194.74 -110.03,342.12 v 968.46 c 0,147.39 36.67,261.41 110.03,342.13 73.33,80.68 179.12,121.06 317.28,121.06 138.18,0 243.94,-40.38 317.3,-121.06 73.32,-80.72 110.02,-194.74 110.02,-342.13 v -968.46 c 0,-147.38 -36.7,-261.45 -110.02,-342.12 -73.36,-80.72 -179.12,-121.07 -317.3,-121.07 -138.16,0 -243.95,40.35 -317.28,121.07"
         style="transform: translateY(-203px);fill:#f2575d;fill-opacity:1;fill-rule:nonzero;stroke:none"
         id="path196" />
      <path
         d="m 3539.18,1370.07 c -97.22,0 -145.84,60.52 -145.84,181.59 0,-105.62 48.62,-181.59 145.84,-181.59 m -145.84,181.59 v 0 1005.31 c 0,121.06 48.62,181.58 145.84,181.58 97.24,0 145.85,-60.52 145.85,-181.58 v 0 c 0,121.06 -48.61,181.58 -145.85,181.58 -97.22,0 -145.84,-71.78 -145.84,-181.58 V 1551.66"
         style="transform: translateY(-203px);fill:#a7a9a8;fill-opacity:1;fill-rule:nonzero;stroke:none"
         id="path198" />
      <path
         d="m 3539.18,1106.89 c -138.16,0 -243.95,40.35 -317.28,121.07 -73.36,80.67 -110.03,194.74 -110.03,342.12 v 968.46 c 0,147.39 36.67,261.41 110.03,342.13 73.33,80.68 179.12,121.06 317.28,121.06 138.18,0 243.94,-40.38 317.3,-121.06 73.32,-80.72 110.02,-194.74 110.02,-342.13 v -968.46 c 0,-147.38 -36.7,-261.45 -110.02,-342.12 -73.36,-80.72 -179.12,-121.07 -317.3,-121.07 m 0,263.18 v 0 c 97.24,0 145.85,60.52 145.85,181.59 v 1005.31 0 c 0,121.06 -48.61,181.58 -145.85,181.58 -97.22,0 -145.84,-60.52 -145.84,-181.58 v -1005.31 0 0 c 0,-121.07 48.62,-181.59 145.84,-181.59"
         style="transform: translateY(-203px);fill:#cc4341;fill-opacity:1;fill-rule:nonzero;stroke:none"
         id="path200" />
      <path
         d="m 3556.89,1551.67 v 1005.31 c 0,121.06 -48.61,181.58 -145.84,181.58 -97.24,0 -145.85,-60.52 -145.85,-181.58 V 1551.67 c 0,-121.07 48.61,-181.59 145.85,-181.59 97.23,0 145.84,60.52 145.84,181.59 z m -463.13,-323.7 c -73.37,80.67 -110.03,194.74 -110.03,342.12 v 968.46 c 0,147.39 36.66,261.41 110.03,342.13 73.32,80.68 179.11,121.06 317.29,121.06 138.17,0 243.93,-40.38 317.29,-121.06 73.32,-80.72 110.02,-194.74 110.02,-342.13 v -968.46 c 0,-147.38 -36.7,-261.45 -110.02,-342.12 -73.36,-80.72 -179.12,-121.07 -317.29,-121.07 -138.18,0 -243.97,40.35 -317.29,121.07"
         style="transform: translateY(-203px);fill:#f2575d;fill-opacity:1;fill-rule:nonzero;stroke:none"
         id="path202" />
      <path
         d="m 4595,1730.61 v 718.46 h -5.11 L 4313.53,1730.61 H 4595 m 0,-263.17 h -537.35 v 263.17 l 511.76,1244.79 h 307.06 V 1730.61 h 133.05 V 1467.44 H 4876.47 V 1133.21 H 4595 v 334.23"
         style="transform: translateY(-203px);fill:#f2575d;fill-opacity:1;fill-rule:nonzero;stroke:none"
         id="path204" />
      <path
         d="M 4876.47,1133.21 H 4595 v 334.23 h -537.35 v 263.17 l 511.76,1244.79 h 307.06 V 1730.61 h 133.05 v -263.17 h -133.05 v -334.23 m -562.94,597.4 v 0 H 4595 v 718.46 h -5.11 l -276.36,-718.46"
         style="transform: translateY(-203px);fill:#cc4341;fill-opacity:1;fill-rule:nonzero;stroke:none"
         id="path206" />
      <path
         d="m 4466.86,1730.62 v 718.46 h -5.12 l -276.36,-718.46 z m 0,-263.17 h -537.35 v 263.17 l 511.75,1244.79 h 307.06 V 1730.62 h 133.06 v -263.17 h -133.06 v -334.23 h -281.46 v 334.23"
         style="transform: translateY(-203px);fill:#f2575d;fill-opacity:1;fill-rule:nonzero;stroke:none"
         id="path208" />
      <path
         d="m 5099.82,2128.66 c 83.47,-413.71 258.17,-727.5 390.21,-700.86 132.04,26.64 171.42,383.62 87.95,797.33 -83.47,413.72 -258.17,727.51 -390.21,700.87 -132.04,-26.64 -171.42,-383.62 -87.95,-797.34"
         style="fill:#17282f;fill-opacity:1;fill-rule:nonzero;stroke:none"
         id="path210" />
      <path
         d="m 5505.76,2208.71 c -76.08,377.09 -227.94,671.11 -354.22,700.05 11.17,8.75 23.24,14.62 36.23,17.24 132.04,26.64 306.74,-287.15 390.21,-700.87 83.47,-413.71 44.09,-770.69 -87.95,-797.33 -11.69,-2.36 -23.72,-2 -35.98,0.81 102.35,80.23 126.97,407.08 51.71,780.1"
         style="fill:#33535f;fill-opacity:1;fill-rule:nonzero;stroke:none"
         id="path212" />
      <path
         d="m 6825.27,2921.77 141.45,206.46 c 0,0 257.37,-74.45 287.22,-38.84 l -390.46,288.65 -233.61,-312.64 195.4,-143.63"
         style="fill:#17282f;fill-opacity:1;fill-rule:nonzero;stroke:none"
         id="path214" />
      <path
         d="m 6833.48,3200.57 c -6.03,7.65 -4.97,20 2.43,26.34 7.39,6.34 19.97,5.37 26.13,-2.17 6.17,-7.55 5.35,-22.42 -2.71,-27.89 -8.06,-5.47 -22.77,-3.53 -26.94,5.28"
         style="fill:#dadbd8;fill-opacity:1;fill-rule:nonzero;stroke:none"
         id="path216" />
      <path
         d="m 6863.48,3378.05 -22.31,-32.44 382.71,-264.63 c 0,0 22.98,-5.28 30.06,8.41 l -390.46,288.66"
         style="fill:#33535f;fill-opacity:1;fill-rule:nonzero;stroke:none"
         id="path218" />
      <path
         d="m 6971.59,3121.56 c 1.34,1.96 -7.55,9.87 -12.4,22.93 -5.19,12.94 -3.92,24.78 -6.24,25.32 -2.03,0.93 -7.61,-12.57 -1.46,-28.29 6.01,-15.77 19.22,-22.01 20.1,-19.96"
         style="fill:#ffffff;fill-opacity:1;fill-rule:nonzero;stroke:none"
         id="path220" />
      <path
         d="m 7025.06,3108.23 c 1.8,1.52 -4.06,10.87 -4.57,23.72 -0.89,12.83 3.92,22.76 1.96,24.08 -1.57,1.63 -11.15,-8.56 -10.2,-24.53 0.8,-15.97 11.43,-25.06 12.81,-23.27"
         style="fill:#ffffff;fill-opacity:1;fill-rule:nonzero;stroke:none"
         id="path222" />
      <path
         d="m 7084.56,3140.05 c -1.44,1.68 -11.13,-5.88 -13.95,-19.94 -2.93,-14.05 3.02,-24.81 5,-23.82 2.24,0.77 0.59,10.65 3.08,22.16 2.22,11.57 7.62,20.01 5.87,21.6"
         style="fill:#ffffff;fill-opacity:1;fill-rule:nonzero;stroke:none"
         id="path224" />
      <path
         d="m 6934.13,3078.09 c 0.48,2.33 -10.21,6.16 -20.44,14.86 -10.42,8.49 -16.13,18.31 -18.33,17.41 -2.13,-0.57 0.85,-13.68 13.05,-23.75 12.11,-10.17 25.54,-10.71 25.72,-8.52"
         style="fill:#ffffff;fill-opacity:1;fill-rule:nonzero;stroke:none"
         id="path226" />
      <path
         d="m 6689.61,2082.59 142.67,205.62 c 0,0 256.93,-75.96 286.99,-40.53 l -388.76,290.95 -235.44,-311.26 194.54,-144.78"
         style="fill:#17282f;fill-opacity:1;fill-rule:nonzero;stroke:none"
         id="path228" />
      <path
         d="m 6699.47,2361.33 c -5.99,7.69 -4.85,20.04 2.58,26.34 7.43,6.29 20,5.25 26.12,-2.34 6.12,-7.57 5.22,-22.44 -2.88,-27.87 -8.09,-5.42 -22.78,-3.39 -26.9,5.44"
         style="fill:#dadbd8;fill-opacity:1;fill-rule:nonzero;stroke:none"
         id="path230" />
      <path
         d="m 6730.52,2538.63 -22.51,-32.3 381.15,-266.88 c 0,0 22.94,-5.42 30.11,8.23 l -388.75,290.95"
         style="fill:#33535f;fill-opacity:1;fill-rule:nonzero;stroke:none"
         id="path232" />
      <path
         d="m 6837.1,2281.52 c 1.36,1.94 -7.49,9.91 -12.26,23 -5.11,12.97 -3.77,24.8 -6.08,25.35 -2.03,0.94 -7.69,-12.52 -1.63,-28.28 5.91,-15.8 19.08,-22.12 19.97,-20.07"
         style="fill:#ffffff;fill-opacity:1;fill-rule:nonzero;stroke:none"
         id="path234" />
      <path
         d="m 6890.5,2267.87 c 1.81,1.51 -3.99,10.89 -4.43,23.75 -0.82,12.84 4.05,22.74 2.1,24.07 -1.56,1.63 -11.19,-8.5 -10.35,-24.48 0.71,-15.97 11.29,-25.12 12.68,-23.34"
         style="fill:#ffffff;fill-opacity:1;fill-rule:nonzero;stroke:none"
         id="path236" />
      <path
         d="m 6950.18,2299.33 c -1.42,1.7 -11.16,-5.81 -14.06,-19.85 -3.01,-14.03 2.87,-24.83 4.86,-23.85 2.24,0.76 0.65,10.65 3.21,22.15 2.29,11.55 7.74,19.95 5.99,21.55"
         style="fill:#ffffff;fill-opacity:1;fill-rule:nonzero;stroke:none"
         id="path238" />
      <path
         d="m 6799.39,2238.26 c 0.5,2.33 -10.17,6.23 -20.35,14.99 -10.36,8.55 -16.02,18.4 -18.23,17.51 -2.13,-0.55 0.77,-13.68 12.91,-23.83 12.06,-10.23 25.49,-10.86 25.67,-8.67"
         style="fill:#ffffff;fill-opacity:1;fill-rule:nonzero;stroke:none"
         id="path240" />
      <path
         d="m 5216.93,1933.57 c 13.28,-0.02 1199.07,341.61 1281.54,415.81 82.48,74.21 419.32,661.82 419.32,661.82 l -239.23,195.06 -415.85,-541.84 -730.16,-65.92 c 0,0 -307.84,21 -361.5,-89.09 l -5.06,-164.78 50.94,-411.06"
         style="fill:#17282f;fill-opacity:1;fill-rule:nonzero;stroke:none"
         id="path242" />
      <path
         d="m 5216.93,1933.57 c 17.55,-0.5 547.24,-589.89 713.17,-623.41 165.93,-33.53 249.44,80.92 306.1,149.53 72.18,87.4 563.79,714.74 563.79,714.74 l -246.63,204 -540.67,-575.33 -325.11,447.72 -283.43,26.57 -172.33,-152.65 -14.89,-191.17"
         style="fill:#17282f;fill-opacity:1;fill-rule:nonzero;stroke:none"
         id="path244" />
      <path
         d="m 5964.57,1748.06 c -0.07,0.07 0.57,0.89 1.87,2.43 1.52,1.76 3.46,3.99 5.87,6.78 5.52,6.15 13.21,14.75 22.99,25.67 20.4,22.44 49.47,54.39 85.28,93.75 36.23,39.54 79.25,86.48 126.99,138.58 23.98,26.01 49.15,53.31 75.23,81.6 26.48,27.95 53.88,56.89 81.94,86.52 67.74,71.3 131.59,138.51 186.88,196.69 l 1.55,1.64 1.73,-1.44 c 73.03,-60.93 134.38,-112.12 177.81,-148.35 21.22,-17.92 38.05,-32.14 49.9,-42.14 5.5,-4.75 9.83,-8.49 13.06,-11.28 2.93,-2.59 4.4,-3.98 4.32,-4.08 -0.08,-0.1 -1.72,1.09 -4.81,3.48 -3.35,2.65 -7.84,6.21 -13.53,10.72 -12.05,9.76 -29.17,23.62 -50.76,41.11 -43.73,35.86 -105.51,86.52 -179.06,146.83 l 3.28,0.2 c -55.15,-58.3 -118.84,-125.64 -186.41,-197.09 -28.1,-29.6 -55.52,-58.51 -82.02,-86.43 -26.16,-28.22 -51.4,-55.44 -75.46,-81.39 -48.06,-51.79 -91.36,-98.46 -127.83,-137.77 -36.34,-38.87 -65.83,-70.43 -86.54,-92.58 -10.1,-10.63 -18.04,-18.99 -23.73,-24.98 -2.58,-2.64 -4.65,-4.75 -6.28,-6.41 -1.43,-1.42 -2.2,-2.12 -2.27,-2.06"
         style="fill:#33535f;fill-opacity:1;fill-rule:nonzero;stroke:none"
         id="path246" />
      <path
         d="m 5957.78,2152.73 c 0.1,-0.34 -5.38,-2.27 -15.36,-5.49 -10.87,-3.4 -25.15,-7.86 -42.38,-13.25 -35.8,-11.11 -85.42,-25.98 -139.75,-43.65 -13.57,-4.54 -26.8,-8.97 -39.61,-13.26 -12.8,-4.16 -25.13,-8.17 -36.12,-13.4 -22.12,-10.33 -36.98,-27.93 -44.67,-44.55 -7.83,-16.75 -10.59,-31.8 -12.65,-41.99 -1.89,-10.28 -2.75,-16.02 -3.16,-15.97 -0.18,0.02 -0.18,1.47 -0.01,4.24 0.14,2.76 0.54,6.82 1.17,12.05 1.47,10.36 3.66,25.69 11.31,43.21 7.49,17.41 22.87,36.29 45.92,47.33 11.35,5.55 23.82,9.69 36.63,13.93 12.79,4.32 26.01,8.78 39.56,13.36 54.47,17.71 104.26,32.02 140.34,42.23 18.05,5.07 32.7,9.05 42.86,11.67 10.15,2.62 15.82,3.89 15.92,3.54"
         style="fill:#33535f;fill-opacity:1;fill-rule:nonzero;stroke:none"
         id="path248" />
      <path
         d="m 5057.23,2440.73 c -0.16,0.09 0.68,1.71 2.42,4.74 0.99,1.67 2.08,3.51 3.3,5.58 1.6,2.14 3.37,4.49 5.3,7.07 8.18,10.48 22.03,24.17 41.57,37.72 38.92,27.52 99.9,53.61 169.5,72.86 69.72,19.22 134.74,28.81 181.98,31.88 23.63,1.57 42.83,1.49 56.06,0.74 6.62,-0.38 11.74,-0.85 15.19,-1.38 3.46,-0.46 5.26,-0.79 5.24,-0.97 -0.05,-0.5 -7.32,0.25 -20.5,0.32 -13.17,0.12 -32.24,-0.35 -55.71,-2.39 -46.92,-3.98 -111.53,-14.11 -180.87,-33.22 -69.23,-19.14 -129.88,-44.49 -168.81,-70.88 -19.56,-13 -33.55,-26.04 -42.08,-35.97 -2.05,-2.44 -3.92,-4.66 -5.61,-6.68 -1.36,-1.95 -2.57,-3.68 -3.67,-5.24 -2.02,-2.82 -3.16,-4.27 -3.31,-4.18"
         style="fill:#33535f;fill-opacity:1;fill-rule:nonzero;stroke:none"
         id="path250" />
      <path
         d="m 5548.12,1604.92 c -0.11,-0.14 -1.54,0.81 -4.14,2.75 -3.04,2.34 -6.74,5.2 -11.21,8.65 -10.29,8.1 -24.11,18.97 -40.89,32.18 -34.55,27.16 -83.62,62.8 -138.14,101.92 -54.56,39.16 -101.7,77.82 -134.24,107.45 -16.24,14.85 -29.25,27 -37.94,35.71 -4,4 -7.3,7.3 -10.02,10.02 -2.25,2.33 -3.37,3.62 -3.25,3.75 0.13,0.13 1.49,-0.9 3.97,-2.99 2.9,-2.52 6.42,-5.59 10.68,-9.3 9.11,-8.24 22.48,-19.97 39,-34.43 33.11,-28.87 80.38,-66.88 134.86,-105.99 54.47,-39.08 103.36,-75.32 137.36,-103.26 17.04,-13.91 30.69,-25.34 39.91,-33.5 4.22,-3.75 7.72,-6.86 10.59,-9.41 2.38,-2.2 3.58,-3.41 3.46,-3.55"
         style="fill:#33535f;fill-opacity:1;fill-rule:nonzero;stroke:none"
         id="path252" />
      <path
         d="m 1883.81,2019.55 c -155.66,-415.87 -389.45,-712.73 -522.18,-663.05 -132.72,49.69 -114.13,427.09 41.54,842.96 155.66,415.87 389.45,712.73 522.18,663.05 132.72,-49.69 114.13,-427.09 -41.54,-842.96"
         style="fill:#17282f;fill-opacity:1;fill-rule:nonzero;stroke:none"
         id="path254" />
      <path
         d="m 1475.45,2170.37 c 141.88,379.05 348.65,659.17 484.66,668.19 -10.14,10.96 -21.71,19.06 -34.76,23.95 -132.73,49.68 -366.52,-247.18 -522.18,-663.05 -155.67,-415.87 -174.26,-793.27 -41.54,-842.96 11.75,-4.4 24.31,-6.02 37.52,-5.15 -92.95,100.4 -64.05,444.05 76.3,819.02"
         style="fill:#33535f;fill-opacity:1;fill-rule:nonzero;stroke:none"
         id="path256" />
      <path
         d="m 86.0313,3106.39 c 0,0 -35.3985,90.3 -50.7305,122.96 -15.336,32.66 -11.9531,132.46 -1.7891,150.58 10.1602,18.12 0.7696,31.88 0.7696,31.88 0,0 -52.2071,97.29 -27.76567,121.3 l 14.22657,1.61 c 0,0 52.2656,-104.42 54.043,-106.47 1.7734,-2.05 13.2109,-2.63 16.8398,15.58 3.6289,18.21 -5.1758,72.16 -5.1758,72.16 0,0 -19.7734,34.41 -21.2265,57.98 -0.5469,8.86 7.3984,21.42 14.4726,26.78 l 7.1445,5.42 c 0,0 43.8872,-79.37 46.3282,-98.78 2.441,-19.42 10.516,-61.5 10.516,-61.5 l 6.113,4.92 0.5,97.37 c 0,0 -21.957,82.41 -5.262,100.44 16.699,18.03 18.297,2.91 18.297,2.91 0,0 31.348,-84.14 33.68,-105.46 0.953,-8.7 1.918,-92.32 1.918,-92.32 l 13.484,5.57 4.691,78.22 c 0,0 -15.789,77.59 7.872,85.49 l 18.968,0.61 c 0,0 17.996,-102.11 19.961,-106.87 1.965,-4.76 -13.785,-121.34 -13.785,-121.34 l 4.762,-11.01 13.672,18.64 c 0,0 6.109,17.89 33.359,32.84 27.246,14.96 39.156,4.09 39.156,4.09 l -34.207,-60.81 c 0,0 -31.136,-71.05 -43.871,-87.45 -12.73,-16.39 -56.207,-54.75 -63.062,-58.51 -6.86,-3.76 0.836,-35.31 0.836,-35.31 l 10.781,-22.02 -125.5157,-69.5"
         style="fill:#f9a78d;fill-opacity:1;fill-rule:nonzero;stroke:none"
         id="path258" />
      <path
         d="m 222.906,3344.37 c 0.016,-1.02 -11.019,-0.76 -27.961,-4.85 -16.82,-3.96 -39.66,-13.37 -59.105,-31.3 -19.434,-17.97 -30.625,-39.99 -35.9064,-56.44 -5.4219,-16.56 -6.0391,-27.58 -7.0625,-27.49 -0.5938,-0.02 -1.4844,11.23 3.0703,28.68 4.4026,17.27 15.4886,40.71 35.9026,59.57 28.105,22.42 51.043,31 62.234,31.05 17.75,3.16 28.902,1.37 28.828,0.78"
         style="fill:#f57f62;fill-opacity:1;fill-rule:nonzero;stroke:none"
         id="path260" />
      <path
         d="m 227.605,3455.98 c -0.05,-1.99 -41.066,4.71 -89.414,-7.99 -48.5191,-12.09 -81.2691,-37.67 -82.2652,-35.95 -0.4141,0.52 7.1094,7.57 21.1875,16.4 14.0234,8.84 34.9647,18.92 59.6167,25.26 24.661,6.27 47.864,7.5 64.411,6.48 16.589,-0.98 26.578,-3.55 26.464,-4.2"
         style="fill:#f57f62;fill-opacity:1;fill-rule:nonzero;stroke:none"
         id="path262" />
      <path
         d="m 86.0313,3106.39 c 3.3984,-8.23 175.5857,-529.41 250.0427,-585.37 74.453,-55.95 566.211,-200.45 566.211,-200.45 L 979.563,2582.58 498.547,2733.49 199.93,3233.22 86.0313,3106.39"
         style="fill:#f9a78d;fill-opacity:1;fill-rule:nonzero;stroke:none"
         id="path264" />
      <path
         d="m 1011.34,2654.48 -371.469,63.37 -79.351,-322.98 429.699,-98.32 21.121,357.93"
         style="fill:#f2575d;fill-opacity:1;fill-rule:nonzero;stroke:none"
         id="path266" />
      <path
         d="m 1244.56,2628.79 -21.8,569.75 c -0.81,141.91 -84.06,259.72 -225.893,254.99 l -13.082,-1.21 c -131.644,-12.1 -231.972,-123.23 -230.484,-255.43 1.383,-122.99 4.484,-258.87 11.32,-324.29 14.145,-135.44 151.703,-144.06 151.703,-144.06 l 42.149,-168.56 48.027,-15.95 238.06,84.76"
         style="fill:#f9a78d;fill-opacity:1;fill-rule:nonzero;stroke:none"
         id="path268" />
      <path
         d="m 916.324,2728.54 c 0,0 85.926,2.85 171.746,68.43 0,0 -24.95,-109.12 -161.375,-109.36 l -10.371,40.93"
         style="fill:#f57f62;fill-opacity:1;fill-rule:nonzero;stroke:none"
         id="path270" />
      <path
         d="m 821.695,3086.59 c 0.575,-10.26 9.743,-18.23 20.469,-17.82 10.703,0.41 18.934,9.03 18.352,19.29 -0.578,10.26 -9.739,18.24 -20.446,17.84 -10.722,-0.41 -18.953,-9.05 -18.375,-19.31"
         style="fill:#17282f;fill-opacity:1;fill-rule:nonzero;stroke:none"
         id="path272" />
      <path
         d="m 787.641,3139.66 c 2.629,-2.3 16.3,9.91 37.144,11.77 20.793,2.16 37.07,-7.16 39.094,-4.4 1.008,1.23 -1.856,5.57 -8.961,9.8 -6.996,4.23 -18.609,7.9 -31.586,6.64 -12.973,-1.26 -23.449,-7.04 -29.277,-12.51 -5.953,-5.51 -7.707,-10.27 -6.414,-11.3"
         style="fill:#17282f;fill-opacity:1;fill-rule:nonzero;stroke:none"
         id="path274" />
      <path
         d="m 986.41,3090.32 c 2.637,-2.3 16.33,9.9 37.16,11.76 20.78,2.16 37.07,-7.16 39.09,-4.39 1,1.23 -1.83,5.56 -8.97,9.79 -6.99,4.23 -18.6,7.89 -31.58,6.65 -12.97,-1.27 -23.45,-7.05 -29.278,-12.51 -5.937,-5.51 -7.699,-10.28 -6.422,-11.3"
         style="fill:#17282f;fill-opacity:1;fill-rule:nonzero;stroke:none"
         id="path276" />
      <path
         d="m 932.316,2986.63 c -0.011,1.19 -13.171,2.24 -34.406,3 -5.371,0.05 -10.508,0.65 -11.734,4.2 -1.606,3.72 0.09,9.66 2.101,16.1 3.817,13.33 7.813,27.31 12.008,41.96 16.547,59.7 28.004,108.58 25.594,109.23 -2.414,0.64 -17.777,-47.22 -34.324,-106.91 -3.95,-14.72 -7.735,-28.73 -11.325,-42.15 -1.457,-6.23 -4.289,-13.41 -0.839,-21.14 1.797,-3.84 5.968,-6.37 9.461,-6.97 3.511,-0.73 6.511,-0.51 9.156,-0.43 21.226,0.81 34.336,1.92 34.308,3.11"
         style="fill:#17282f;fill-opacity:1;fill-rule:nonzero;stroke:none"
         id="path278" />
      <path
         d="m 968.969,3145.18 c 3.32,-5.06 23.027,2.39 47.591,5.19 24.52,3.28 45.44,0.87 47.43,6.58 0.85,2.71 -3.75,7.12 -12.81,10.63 -8.98,3.52 -22.51,5.68 -37.23,3.87 -14.712,-1.84 -27.298,-7.23 -35.161,-12.84 -7.93,-5.61 -11.312,-11.01 -9.82,-13.43"
         style="fill:#17282f;fill-opacity:1;fill-rule:nonzero;stroke:none"
         id="path280" />
      <path
         d="m 782.668,3192.56 c 4.699,-4.4 21.309,1.82 41.719,3.63 20.351,2.4 37.968,-0.29 41.57,4.98 1.555,2.54 -1.527,7.07 -9.43,10.98 -7.793,3.9 -20.535,6.59 -34.543,5.15 -14.007,-1.46 -25.836,-6.69 -32.57,-12.09 -6.844,-5.42 -8.836,-10.48 -6.746,-12.65"
         style="fill:#17282f;fill-opacity:1;fill-rule:nonzero;stroke:none"
         id="path282" />
      <path
         d="m 1220.92,3097.12 c 2.22,1.22 90.64,36.13 96.2,-56.84 5.56,-92.98 -88.92,-79.39 -89.25,-76.73 -0.32,2.66 -6.95,133.57 -6.95,133.57"
         style="fill:#f9a78d;fill-opacity:1;fill-rule:nonzero;stroke:none"
         id="path284" />
      <path
         d="m 1254.17,3000.47 c 0.38,0.32 1.68,-1.03 4.5,-2.13 2.74,-1.06 7.38,-1.62 12.12,0.48 9.6,4.19 16.94,20.28 16.39,37.07 -0.27,8.47 -2.53,16.42 -5.92,22.91 -3.25,6.63 -7.93,11.12 -12.93,11.71 -4.99,0.84 -8.31,-2.33 -9.29,-5.02 -1.09,-2.67 -0.39,-4.49 -0.88,-4.68 -0.24,-0.25 -2.08,1.44 -1.56,5.32 0.27,1.88 1.23,4.13 3.31,6.05 2.12,1.95 5.34,3.07 8.81,2.9 7.2,-0.06 14.05,-6.27 17.78,-13.4 4.13,-7.13 6.87,-16.06 7.17,-25.58 0.52,-18.77 -8.02,-36.88 -21.23,-41.56 -6.43,-2.1 -12.01,-0.45 -14.96,1.57 -3.01,2.13 -3.63,4.17 -3.31,4.36"
         style="fill:#f57f62;fill-opacity:1;fill-rule:nonzero;stroke:none"
         id="path286" />
      <path
         d="m 998.555,2977.01 c -3.207,0.04 -2.27,-21.33 -19.86,-37.33 -17.554,-16.06 -40.437,-14.7 -40.472,-17.7 -0.235,-1.35 5.261,-3.91 14.89,-3.74 9.446,0.11 23.075,3.78 33.84,13.57 10.727,9.81 14.957,22.44 15.277,31.24 0.41,8.97 -2.22,14.15 -3.675,13.96"
         style="fill:#17282f;fill-opacity:1;fill-rule:nonzero;stroke:none"
         id="path288" />
      <path
         d="m 559.383,3309.8 c 1.137,5.56 4.844,10.31 9.547,13.5 10.261,6.95 22.582,6.87 34.422,7.79 29.472,2.3 58.265,11.66 83.742,26.63 -9.457,4.08 -18.371,9.2 -26.098,16.01 -15.953,14.06 -26.012,36.48 -20.375,56.98 1.055,3.85 3.008,7.93 6.742,9.34 5.926,2.23 11.575,-3.37 16.078,-7.82 14.797,-14.61 28,-20.46 48.524,-17.1 12.746,2.09 24.996,5.73 34.695,12.64 l 1.086,1.37 c 4.524,5.29 8.949,10.34 13.313,15.24 l 0.031,0.05 -0.016,-0.03 c 32.828,36.85 61.418,62.75 91.61,77.13 44.257,21.08 119.703,33.18 167.796,23.69 48.09,-9.49 92.97,-45.25 102.54,-93.33 25.15,24.08 65.01,26.36 98.14,15.36 l 0.79,0.41 c 36.79,-10.61 59.59,-47.37 72.49,-83.43 0.7,-1.96 1.33,-3.97 2,-5.96 13.37,-18.54 30.93,-34.04 51.37,-44.31 3.61,-1.81 7.75,-4.05 8.42,-8.02 0.67,-3.94 -2.48,-7.44 -5.58,-9.97 -8.25,-6.71 -18.05,-11.39 -28.39,-13.9 3.84,-8.53 8.22,-16.77 13.5,-24.56 4.49,-6.63 9.83,-14.57 6.72,-21.95 -2.4,-5.71 -9.29,-8.43 -15.46,-7.91 -6.17,0.52 -11.8,3.57 -17.23,6.55 4.61,-9.37 9.22,-18.73 13.83,-28.1 -12.88,-3.07 -26.43,-2.86 -39.32,0.19 -5.52,-34.8 -7.33,-98.73 -14.73,-122.54 -24.65,-1.96 -30.81,0.35 -43.01,-4.55 -15.76,-6.34 -7.86,-34.46 -29.31,-27.66 -10.92,3.47 -29.79,42.87 -34.03,53.52 -28.14,70.61 -40.78,147.35 -36.89,223.26 -15.89,14.97 -34.69,26.85 -55.04,34.77 l 1.7,-1.35 c -38.83,10.85 -82.627,21.18 -117.588,1.1 -27.117,-15.57 -41.765,-45.62 -61.246,-70.08 -36.926,-46.35 -80.347,-72.56 -139.281,-78.76 -2.789,-41.37 -0.215,-108.58 0.145,-147.01 l -37.442,74.64 -0.008,-0.31 c -2.918,4.32 -5.382,8.72 -7.769,13.12 l -0.809,1.33 -0.012,0.18 c -3.796,7.07 -7.437,14.17 -12.117,21.12 l -0.347,-0.35 c -19.618,-19.59 -51.922,6.5 -36.938,29.83 2.969,4.63 6.61,8.81 10.848,12.34 -8.934,-9.49 -22.809,-14.63 -35.481,-11.58 -12.675,3.06 -23.097,15.04 -22.82,28.07 0.191,8.9 6.023,17.2 13.801,21.19 -16.684,-2.32 -34.047,0.27 -49.176,7.7 -9.918,4.87 -19.871,13.28 -17.367,25.53"
         style="fill:#17282f;fill-opacity:1;fill-rule:nonzero;stroke:none"
         id="path290" />
      <path
         d="m 1081.18,3433.63 c -0.25,-0.37 5.92,-3.25 14.42,-11.64 8.42,-8.36 18.2,-23.2 23.67,-43.88 2.79,-10.28 4.85,-21.84 5.62,-34.36 0.83,-12.53 0.65,-26.01 0.57,-40.21 -0.04,-14.19 -0.13,-29.2 1.74,-44.68 0.93,-7.73 2.35,-15.56 4.52,-23.35 2.2,-7.64 4.75,-15.93 11.02,-22.23 4.99,-5.14 12.93,-7.07 19.6,-5.27 6.72,1.63 12.54,5.62 16.67,10.83 8.12,10.76 9.5,23.85 10.97,35.41 l -2.83,-0.53 c 5.3,-9.97 10.71,-19.82 18.31,-27.47 7.48,-7.72 17.48,-12.51 27.36,-12.78 4.92,-0.14 9.8,0.95 13.88,3.33 4.15,2.35 7.05,6.09 8.95,9.97 1.8,3.95 2.6,8.21 2.14,12.24 -0.48,4.03 -2.29,7.76 -5.02,10.31 l -1.37,-1.37 c 11.23,-11.3 22.71,-17.04 30.59,-20.12 3.97,-1.55 7.13,-2.42 9.27,-2.96 2.15,-0.5 3.27,-0.69 3.3,-0.61 0.02,0.1 -1.07,0.46 -3.15,1.13 -2.08,0.7 -5.16,1.73 -9.03,3.4 -7.67,3.34 -18.8,9.27 -29.59,20.51 l -1.36,-1.38 c 4.88,-4.57 5.67,-13.07 2.15,-20.16 -1.77,-3.5 -4.44,-6.84 -8.1,-8.84 -3.63,-2.07 -8.09,-3.04 -12.58,-2.86 -9.08,0.34 -18.41,4.83 -25.42,12.18 -7.17,7.32 -12.42,16.91 -17.67,26.9 l -2.22,4.24 -0.61,-4.77 c -1.47,-11.53 -3.02,-24.12 -10.44,-33.82 -3.69,-4.67 -9.03,-8.28 -14.92,-9.68 -5.89,-1.52 -12.3,0.05 -16.66,4.45 -5.47,5.45 -8.05,13.29 -10.19,20.81 -2.12,7.6 -3.53,15.27 -4.47,22.87 -1.88,15.22 -1.87,30.12 -1.9,44.29 0,14.19 0.08,27.73 -0.87,40.41 -0.9,12.67 -3.12,24.38 -6.09,34.78 -5.83,20.93 -16.14,35.94 -24.97,44.16 -8.93,8.26 -15.29,10.75 -15.29,10.75"
         style="fill:#33535f;fill-opacity:1;fill-rule:nonzero;stroke:none"
         id="path292" />
      <path
         d="m 668.477,3275.2 1.148,-0.86 c 0.961,-0.61 2.129,-1.36 3.551,-2.27 1.554,-1.02 3.523,-2.2 5.996,-3.34 2.433,-1.2 5.211,-2.67 8.543,-3.84 13.008,-5.22 33.64,-9.94 58.887,-6.88 25.003,2.97 54.578,13.72 80.234,35.41 25.973,21.22 48.047,51.49 65.512,85.67 8.879,17.09 15.894,34.47 23.82,50.62 7.867,16.15 16.73,31.18 27.84,43.3 10.965,12.17 24,21.47 37.73,26.22 6.836,2.5 13.825,3.4 20.522,3.66 6.74,0.06 13.18,-0.91 19.16,-2.46 11.97,-3.22 21.83,-9.11 29.42,-15.33 7.62,-6.28 12.89,-13.08 16.59,-18.96 6.96,-12.12 7.8,-20.13 8.28,-19.97 0.06,0.01 -0.01,0.49 -0.19,1.42 -0.25,1.12 -0.55,2.47 -0.91,4.13 -0.89,3.6 -2.78,8.78 -6.11,15.04 -3.59,6.09 -8.83,13.15 -16.51,19.71 -7.66,6.49 -17.68,12.68 -29.97,16.13 -6.14,1.68 -12.79,2.75 -19.78,2.75 -6.939,-0.19 -14.279,-1.09 -21.361,-3.62 -14.27,-4.81 -27.762,-14.34 -39.039,-26.74 -11.442,-12.35 -20.512,-27.65 -28.473,-43.9 -8.027,-16.27 -15.054,-33.62 -23.855,-50.54 -17.332,-33.93 -39.078,-63.85 -64.547,-84.87 -25.172,-21.48 -54.031,-32.2 -78.645,-35.43 -24.804,-3.3 -45.168,0.99 -58.16,5.8 -13.097,4.89 -19.461,9.55 -19.683,9.15"
         style="fill:#33535f;fill-opacity:1;fill-rule:nonzero;stroke:none"
         id="path294" />
      <path
         d="m 652.395,3334.22 c -0.102,-0.2 1.71,-1.29 5.089,-3.1 3.348,-1.87 8.446,-4.11 14.903,-6.44 6.449,-2.38 14.386,-4.48 23.343,-6.1 8.973,-1.45 18.981,-2.32 29.493,-2.07 10.507,0.38 20.445,1.84 29.324,3.82 8.84,2.15 16.641,4.72 22.937,7.48 6.305,2.71 11.258,5.25 14.489,7.32 3.265,2.01 5.007,3.2 4.898,3.39 -0.297,0.53 -7.574,-3.81 -20.223,-8.62 -6.304,-2.45 -14.039,-4.75 -22.742,-6.7 -8.742,-1.79 -18.484,-3.13 -28.781,-3.5 -10.297,-0.25 -20.098,0.52 -28.93,1.78 -8.804,1.43 -16.66,3.27 -23.097,5.34 -12.914,4.05 -20.438,7.94 -20.703,7.4"
         style="fill:#33535f;fill-opacity:1;fill-rule:nonzero;stroke:none"
         id="path296" />
      <path
         d="m 1666.83,1586 9.39,45.05 c -113.19,50.14 -215.96,121.07 -302.99,209.11 l -500.523,506.36 12.973,145.3 246.42,230.74 c 0,0 117.51,77.92 269.82,17.55 172.99,-68.56 246.23,-165.66 448.22,-401.08 45.73,-53.3 50.66,-50.71 61.07,-48.12 7.81,1.94 18.7,3.89 52.24,-17.79 0,0 -49.07,-266.74 -141.91,-432.04 C 1753.59,1720.07 1666.83,1586 1666.83,1586"
         style="fill:#f2575d;fill-opacity:1;fill-rule:nonzero;stroke:none"
         id="path298" />
      <path
         d="m 924.52,2292.68 c -0.575,-0.38 -7.899,9.27 -18.457,25.74 -10.567,16.46 -24.172,39.88 -37.293,66.71 -13.106,26.86 -23.207,51.98 -29.696,70.44 -6.5,18.45 -9.605,30.16 -8.953,30.38 0.762,0.25 5.145,-11 12.524,-29.02 7.371,-18.02 17.96,-42.74 30.976,-69.43 13.043,-26.66 26.024,-50.21 35.707,-67.1 9.68,-16.9 15.86,-27.28 15.192,-27.72"
         style="fill:#17282f;fill-opacity:1;fill-rule:nonzero;stroke:none"
         id="path300" />
      <path
         d="m 1796.01,1958.34 -157.05,334.33 27.87,26.32 c 0,0 81.09,-115 112.5,-196.73 31.41,-81.73 16.68,-163.92 16.68,-163.92"
         style="fill:#cc4341;fill-opacity:1;fill-rule:nonzero;stroke:none"
         id="path302" />
      <path
         d="m 1362.93,1455.52 180.29,471.55 -95.05,118.68 -179.18,220.18 c 0,0 -127.93,66.42 -189.15,164.37 -19.13,30.61 -22.8,82.3 -2.83,120.07 55.98,105.85 171.95,147.82 287.44,116.19 l 101.57,-66.58 c 0,0 335.33,-525.52 329.92,-626.78 -3.81,-71.54 -286.57,-555.73 -286.57,-555.73 l -146.44,38.05"
         style="fill:#f9a78d;fill-opacity:1;fill-rule:nonzero;stroke:none"
         id="path304" />
      <path
         d="m 1375.61,1475.55 -200.09,-17.24 c -21.08,-1.81 -40.1,-13.37 -51.42,-31.24 l -89.51,-141.3 c 0,0 35.68,-16.53 59.32,9.89 24.32,27.19 61.82,81.95 61.82,81.95 l -17.01,-157.42 c 0,0 46.15,-4.51 53.91,30.59 8.92,40.3 9.59,93.07 9.59,93.07 l 45.04,-149.64 c 0,0 48.89,16.09 33.19,72.68 -9.92,35.74 -20.64,72.47 -20.64,72.47 l 54.93,-97.38 c 0,0 39.93,3.52 29.55,39.71 -6.9,24.1 -28.11,71.91 -28.11,71.91 0,0 115.23,-8.7 138.12,-0.41 31.2,11.28 63.1,77.51 63.1,77.51 l -141.79,44.85"
         style="fill:#f9a78d;fill-opacity:1;fill-rule:nonzero;stroke:none"
         id="path306" />
      <path
         d="m 1198.17,2693.96 c 0,0 -167.87,-90.25 -149.51,-216.47 18.35,-126.23 162.79,-191.96 162.79,-191.96 l 187.69,-201.21 294.96,256.26 -268.4,333.46"
         style="fill:#f2575d;fill-opacity:1;fill-rule:nonzero;stroke:none"
         id="path308" />
      <path
         d="m 1425.7,2674.04 c 0.05,0.04 0.52,-0.44 1.4,-1.43 1.01,-1.17 2.26,-2.63 3.85,-4.48 3.51,-4.22 8.41,-10.12 14.71,-17.7 12.93,-15.82 31.57,-38.62 55.17,-67.5 47.41,-58.52 114.72,-141.61 195.12,-240.86 l 1.43,-1.78 -1.73,-1.5 c -86.08,-74.92 -186.5,-162.32 -293.27,-255.24 l -1.47,-1.27 -1.97,-1.71 -1.77,1.9 c -66.17,71.02 -129.6,139.11 -187.57,201.33 l 0.8,-0.58 c -35.7,17.76 -67.02,40.28 -93.27,65.79 -25.96,25.64 -47.16,54.45 -58.98,85.43 -2.47,7.88 -5.74,15.41 -7.44,23.24 -1.46,7.88 -3.64,15.49 -4.43,23.24 -1.81,15.47 -0.81,30.68 2.23,44.8 6.09,28.42 19.79,51.99 34.04,71.19 29.22,38.34 60.33,61.32 81.42,76.27 10.68,7.42 19.26,12.61 25.1,16 2.8,1.54 5.01,2.76 6.72,3.71 1.53,0.78 2.34,1.14 2.38,1.07 0.03,-0.06 -0.7,-0.54 -2.16,-1.45 -1.66,-1.04 -3.79,-2.38 -6.49,-4.06 -5.69,-3.62 -14.09,-9.03 -24.59,-16.64 -20.7,-15.3 -51.35,-38.61 -79.86,-76.76 -13.9,-19.09 -27.14,-42.38 -32.88,-70.1 -2.87,-13.79 -3.74,-28.56 -1.9,-43.56 0.81,-7.51 3,-14.99 4.46,-22.67 1.69,-7.65 4.95,-15 7.4,-22.69 24.28,-60.38 80.91,-113.22 150.35,-148.18 l 0.5,-0.25 0.31,-0.33 c 58.05,-62.16 121.56,-130.17 187.81,-201.11 l -3.75,0.2 1.47,1.27 c 106.92,92.74 207.49,179.97 293.7,254.74 l -0.29,-3.28 c -79.77,99.76 -146.56,183.27 -193.6,242.09 -23.16,29.23 -41.45,52.31 -54.14,68.33 -6.06,7.77 -10.77,13.81 -14.15,18.14 -1.46,1.95 -2.62,3.49 -3.55,4.72 -0.78,1.07 -1.16,1.63 -1.11,1.67"
         style="fill:#17282f;fill-opacity:1;fill-rule:nonzero;stroke:none"
         id="path310" />
      <path
         d="m 1219.21,1436.91 c -0.01,-0.87 -6.55,-0.7 -16.37,-3.48 -9.71,-2.68 -22.82,-9.08 -32.69,-20.88 -9.83,-11.84 -13.76,-25.88 -14.64,-35.92 -0.96,-10.16 0.38,-16.56 -0.47,-16.73 -0.53,-0.18 -3.24,6.08 -3.2,16.92 -0.05,10.66 3.56,26.12 14.31,39.06 10.8,12.91 25.35,19.25 35.84,21.13 10.65,1.99 17.31,0.45 17.22,-0.1"
         style="fill:#f57f62;fill-opacity:1;fill-rule:nonzero;stroke:none"
         id="path312" />
      <path
         d="m 1237.62,1413.4 c 0.34,-0.65 -3.96,-3.58 -10.69,-8.49 -3.34,-2.47 -7.32,-5.42 -11.36,-9 -3.93,-3.65 -8.33,-7.71 -10.13,-13.09 -3.81,-11.41 -3.02,-23.24 -2.37,-31.32 0.77,-8.22 2.1,-13.22 1.36,-13.49 -0.6,-0.25 -3.24,4.49 -5,12.93 -1.58,8.35 -3.21,20.5 1.11,33.65 2.43,6.94 7.68,11.37 11.93,14.98 4.46,3.59 8.77,6.3 12.45,8.43 7.4,4.21 12.37,6.02 12.7,5.4"
         style="fill:#f57f62;fill-opacity:1;fill-rule:nonzero;stroke:none"
         id="path314" />
      <path
         d="m 1321.32,1394.61 c 0.18,-0.71 -6.03,-2.51 -16.08,-3.66 -9.67,-1.39 -24.64,-2.24 -33.66,-13.81 -8.8,-11.52 -10.55,-26.03 -8.71,-35.28 1.87,-9.54 5.09,-15.12 4.28,-15.52 -0.42,-0.28 -4.85,4.56 -7.87,14.71 -2.93,10.08 -1.87,26.07 8.23,39.34 5.11,6.62 12.68,10.5 19.42,12.11 6.81,1.71 12.95,1.9 18,2.12 10.12,0.21 16.22,0.68 16.39,-0.01"
         style="fill:#f57f62;fill-opacity:1;fill-rule:nonzero;stroke:none"
         id="path316" />
      <path
         d="m 1476.79,1436.95 c -0.53,-1.34 -24.54,6.75 -53.7,17.89 -14.58,5.57 -27.69,10.84 -37.12,14.81 -9.42,3.95 -15.19,6.68 -14.97,6.97 0.48,2.08 24.82,-5.8 53.95,-16.91 29.18,-11.15 52.36,-21.42 51.84,-22.76"
         style="fill:#f57f62;fill-opacity:1;fill-rule:nonzero;stroke:none"
         id="path318" />
      <path
         d="m 1833.43,1863.24 c 84.51,164.67 129.36,406.31 130.01,409.85 3.72,14.76 7.24,29.37 10.56,43.83 5.76,-3.51 9.57,-6.3 9.57,-6.3 0.76,-0.01 -3.33,-18.95 -29.13,-127.72 -25.92,-109.34 -72.98,-221.99 -98.81,-278.06 -4.41,-9.58 -12.24,-24.1 -22.2,-41.6"
         style="fill:#a7a9a8;fill-opacity:1;fill-rule:nonzero;stroke:none"
         id="path320" />
      <path
         d="m 1963.44,2273.09 c 0.01,0.02 0.01,0.03 0.01,0.03 -21.34,13.79 -33.51,18.02 -41.55,18.77 3.02,22.22 4.54,35.5 4.54,35.5 2.94,2.37 6.67,3.35 10.82,3.35 11.82,0 27.04,-7.92 36.74,-13.82 -3.32,-14.46 -6.84,-29.07 -10.56,-43.83"
         style="fill:#0f191d;fill-opacity:1;fill-rule:nonzero;stroke:none"
         id="path322" />
      <path
         d="m 1686.96,1623.5 5.04,24.2 c 0,0 57.87,109.64 128.19,237.61 55.85,101.65 90.02,320.77 101.71,406.58 8.04,-0.75 20.21,-4.98 41.55,-18.77 0,0 0,-0.01 -0.01,-0.03 -0.65,-3.54 -45.5,-245.18 -130.01,-409.85 -48.28,-84.88 -146.47,-239.74 -146.47,-239.74"
         style="fill:#cc4341;fill-opacity:1;fill-rule:nonzero;stroke:none"
         id="path324" />
    </g>
  </g>
</svg>
